<svg id="OBJECTS" xmlns="http://www.w3.org/2000/svg" viewBox="0 0 442 292"><defs><style>.cls-1{fill:#ccf8ff;}.cls-2{fill:#e3fcff;}</style></defs><title>maintenance-bg</title><rect class="cls-1" width="442" height="292" rx="6" ry="6"/><path class="cls-2" d="M471,265.4V394.92a6,6,0,0,1-6,6H35a6,6,0,0,1-6-6v-154a76.68,76.68,0,0,1,35.08-12.28c21.06-2,42.23,3.58,61.63,12s37.4,19.75,56,29.83c16.36,8.87,34,17,52.61,16.7,18.84-.32,36.54-9.33,51.64-20.61s28.28-24.91,43.13-36.5c15.32-11.94,34.22-22,53.38-18.77,17.29,2.94,30.78,16,44.52,26.85A223.56,223.56,0,0,0,471,265.4Z" transform="translate(-29 -108.92)"/></svg>