<?xml version="1.0" encoding="UTF-8"?>
<svg width="20px" height="20px" viewBox="0 0 20 20" version="1.1" xmlns="http://www.w3.org/2000/svg" xmlns:xlink="http://www.w3.org/1999/xlink">
    <!-- Generator: sketchtool 61 (101010) - https://sketch.com -->
    <title>5796EAD4-5425-43E6-BD13-02AE9459482C</title>
    <desc>Created with sketchtool.</desc>
    <g id="Asset-Artboard-Page" stroke="none" stroke-width="1" fill="none" fill-rule="evenodd">
        <g id="Icon-/-Atm" fill="#A8BAC8" fill-rule="nonzero">
            <g id="876741">
                <path d="M18.9187448,1.05121339 C17.1578243,-0.71041841 13.664477,-0.184853556 9.98694561,2.0816318 C6.30941423,-0.184142259 2.81610879,-0.708995816 1.05518828,1.05121339 C-0.705732218,2.81142259 -0.180167364,6.30548117 2.08560669,9.98301255 C-0.180209205,13.6605439 -0.705774059,17.1531381 1.05518828,18.9148117 C1.83828452,19.6430544 2.88280335,20.0232636 3.95079498,19.9687866 C6.11205021,19.8250628 8.19577406,19.1072385 9.98698745,17.8893724 C11.7782008,19.1072385 13.8619247,19.8251046 16.0231799,19.9687866 C17.0911297,20.0229289 18.1355649,19.6427615 18.9187866,18.9148117 C20.6797071,17.1531799 20.1541423,13.6605439 17.8883682,9.98301255 C20.1541423,6.30548117 20.6797071,2.81284519 18.9187448,1.05121339 Z M15.9917155,1.4139749 C16.6915481,1.36702929 17.3813389,1.60029289 17.9090377,2.06238494 C18.9958577,3.14849372 18.7166527,5.69853556 17.0185774,8.67841004 C16.2231381,7.57995816 15.341046,6.54694561 14.3807531,5.5892887 C13.4223849,4.62732218 12.38841,3.74376569 11.2887448,2.94715481 C12.7049791,2.05393305 14.3211715,1.52707113 15.9917155,1.4139749 Z M2.0648954,2.0609205 L2.06702929,2.0623431 C2.5941841,1.60083682 3.28309623,1.36761506 3.98221757,1.41393305 C5.65297071,1.5276569 7.26916318,2.05527197 8.68518828,2.94920502 C6.4860251,4.54594142 4.5523431,6.47937238 2.95535565,8.67832636 C1.25723849,5.69849372 0.978033473,3.14849372 2.0648954,2.0609205 Z M2.0648954,17.9050628 C0.978075314,16.8174895 1.25728033,14.2674895 2.95535565,11.2876151 C3.75079498,12.3860669 4.63288703,13.4190795 5.59317992,14.3767364 C6.55020921,15.3384519 7.58276151,16.2220084 8.68087866,17.0188703 C5.70246862,18.713431 3.15171548,18.992636 2.0648954,17.9050628 Z M6.60292887,13.3649372 C5.55807531,12.3270293 4.61121339,11.1949372 3.77443515,9.98301255 C5.4607113,7.55912134 7.56426778,5.45414226 9.98698745,3.76619247 C11.199749,4.60435146 12.3325523,5.55263598 13.371046,6.59895397 C14.4159833,7.63753138 15.3628452,8.77037657 16.1995397,9.98301255 C15.3621757,11.1957741 14.4146025,12.3285774 13.3689121,13.3670711 C12.3310042,14.4119247 11.1989121,15.3587866 9.98698745,16.1955649 C8.77422594,15.3582008 7.64138075,14.4106276 6.60292887,13.3649372 Z M17.9090377,17.9050628 L17.9076151,17.9050628 C16.8200418,18.9925941 14.2700418,18.7133891 11.29159,17.0153138 C12.3895816,16.2195816 13.4221339,15.3372803 14.3792887,14.3767782 C15.3395816,13.4191213 16.2217155,12.3861088 17.017113,11.2876569 C18.7166946,14.2675314 18.9958996,16.8175314 17.9090377,17.9050628 Z" id="Shape"></path>
                <path d="M9.98698745,7.12665272 C8.40945607,7.12665272 7.13062762,8.40548117 7.13062762,9.98301255 C7.13062762,11.5605439 8.40945607,12.8393724 9.98698745,12.8393724 C11.5645188,12.8393724 12.8433473,11.5605439 12.8433473,9.98301255 C12.8433473,8.40548117 11.564477,7.12665272 9.98698745,7.12665272 Z M9.98698745,11.4111715 C9.19824268,11.4111715 8.55882845,10.7717573 8.55882845,9.98301255 C8.55882845,9.19426778 9.19824268,8.55485356 9.98698745,8.55485356 C10.7757322,8.55485356 11.4151464,9.19426778 11.4151464,9.98301255 C11.4151464,10.7717573 10.7757322,11.4111715 9.98698745,11.4111715 Z" id="Shape"></path>
            </g>
        </g>
    </g>
</svg>