<?xml version="1.0" encoding="UTF-8"?>
<svg width="22px" height="19px" viewBox="0 0 22 19" version="1.1" xmlns="http://www.w3.org/2000/svg" xmlns:xlink="http://www.w3.org/1999/xlink">
    <!-- Generator: sketchtool 61 (101010) - https://sketch.com -->
    <title>1CD6CB3F-28B8-4554-B33F-D2969321ABBE</title>
    <desc>Created with sketchtool.</desc>
    <g id="Page-1" stroke="none" stroke-width="1" fill="none" fill-rule="evenodd" opacity="0.900000036">
        <g id="01A" transform="translate(-66.000000, -174.000000)" fill="#FFFFFF" fill-rule="nonzero" stroke="#FFFFFF" stroke-width="0.2">
            <g id="Group-21">
                <g id="Shape-2" transform="translate(67.000000, 175.000000)">
                    <path d="M19.4151111,2.53795556 L15.6396444,2.53795556 C15.3428,2.53795556 15.1020444,2.77871111 15.1020444,3.07555556 L15.1020444,6.73066667 L12.4017333,6.73066667 L12.4017333,0.5376 C12.4017333,0.240755556 12.1609778,-1.0658141e-14 11.8641333,-1.0658141e-14 L8.08857778,-1.0658141e-14 C7.79173333,-1.0658141e-14 7.55097778,0.240755556 7.55097778,0.5376 L7.55097778,10.7101333 L4.85066667,10.7101333 L4.85066667,6.1404 C4.85066667,5.84346667 4.60991111,5.6028 4.31306667,5.6028 L0.5376,5.6028 C0.240666667,5.6028 8.8817842e-15,5.84346667 8.8817842e-15,6.1404 L8.8817842e-15,16.4320889 C8.8817842e-15,16.7290222 0.240755556,16.9696889 0.5376,16.9696889 L4.31306667,16.9696889 L8.08853333,16.9696889 L11.8640889,16.9696889 L15.6396,16.9696889 L19.4150667,16.9696889 C19.712,16.9696889 19.9526667,16.7289333 19.9526667,16.4320889 L19.9526667,3.07555556 C19.9526667,2.77871111 19.7120444,2.53795556 19.4151111,2.53795556 Z M3.77551111,15.8944889 L1.0752,15.8944889 L1.0752,6.678 L3.77551111,6.678 L3.77551111,15.8944889 Z M7.55106667,15.8944889 L4.85075556,15.8944889 L4.85075556,11.7853333 L7.55106667,11.7853333 L7.55106667,15.8944889 Z M11.3265778,7.26826667 L11.3265778,15.8944889 L8.62622222,15.8944889 L8.62622222,1.0752 L11.3265778,1.0752 L11.3265778,7.26826667 Z M15.1021333,15.8944889 L12.4018222,15.8944889 L12.4018222,7.80586667 L15.1021333,7.80586667 L15.1021333,15.8944889 Z M18.8776,15.8944889 L16.1773333,15.8944889 L16.1773333,7.26826667 L16.1773333,3.61315556 L18.8776444,3.61315556 L18.8776444,15.8944889 L18.8776,15.8944889 Z" id="Shape"></path>
                </g>
            </g>
        </g>
    </g>
</svg>