<?xml version="1.0" encoding="UTF-8"?>
<svg width="20px" height="20px" viewBox="0 0 20 20" version="1.1" xmlns="http://www.w3.org/2000/svg" xmlns:xlink="http://www.w3.org/1999/xlink">
    <!-- Generator: sketchtool 61 (101010) - https://sketch.com -->
    <title>5EAB8695-76D2-4EEB-A9CB-E6E93CA1C95A</title>
    <desc>Created with sketchtool.</desc>
    <g id="Asset-Artboard-Page" stroke="none" stroke-width="1" fill="none" fill-rule="evenodd">
        <g id="Icon-/-calednar" fill="#A8BAC8" fill-rule="nonzero">
            <g id="833595">
                <path d="M10.8984375,14.21875 C10.8984375,15.0803125 11.599375,15.78125 12.4609375,15.78125 L14.296875,15.78125 C15.1584375,15.78125 15.859375,15.0803125 15.859375,14.21875 L15.859375,12.3828125 C15.859375,11.52125 15.1584375,10.8203125 14.296875,10.8203125 L12.4609375,10.8203125 C11.599375,10.8203125 10.8984375,11.52125 10.8984375,12.3828125 L10.8984375,14.21875 Z M12.4609375,12.3828125 L14.296875,12.3828125 L14.2978516,14.2187109 C14.2978516,14.2187109 14.2975781,14.21875 14.296875,14.21875 L12.4609375,14.21875 L12.4609375,12.3828125 Z" id="Shape"></path>
                <circle id="Oval" cx="15.078125" cy="8.203125" r="1"></circle>
                <circle id="Oval" cx="11.6796875" cy="8.203125" r="1"></circle>
                <path d="M19.21875,13.75 C19.6502344,13.75 20,13.4002344 20,12.96875 L20,4.6875 C20,2.964375 18.598125,1.5625 16.875,1.5625 L15.859375,1.5625 L15.859375,0.78125 C15.859375,0.349765625 15.5096094,0 15.078125,0 C14.6466406,0 14.296875,0.349765625 14.296875,0.78125 L14.296875,1.5625 L10.7421875,1.5625 L10.7421875,0.78125 C10.7421875,0.349765625 10.3924219,0 9.9609375,0 C9.52945312,0 9.1796875,0.349765625 9.1796875,0.78125 L9.1796875,1.5625 L5.6640625,1.5625 L5.6640625,0.78125 C5.6640625,0.349765625 5.31429688,0 4.8828125,0 C4.45132812,0 4.1015625,0.349765625 4.1015625,0.78125 L4.1015625,1.5625 L3.125,1.5625 C1.401875,1.5625 0,2.964375 0,4.6875 L0,16.875 C0,18.598125 1.401875,20 3.125,20 L16.875,20 C18.598125,20 20,18.598125 20,16.875 C20,16.4435156 19.6502344,16.09375 19.21875,16.09375 C18.7872656,16.09375 18.4375,16.4435156 18.4375,16.875 C18.4375,17.7365625 17.7365625,18.4375 16.875,18.4375 L3.125,18.4375 C2.2634375,18.4375 1.5625,17.7365625 1.5625,16.875 L1.5625,4.6875 C1.5625,3.8259375 2.2634375,3.125 3.125,3.125 L4.1015625,3.125 L4.1015625,3.90625 C4.1015625,4.33773438 4.45132812,4.6875 4.8828125,4.6875 C5.31429688,4.6875 5.6640625,4.33773438 5.6640625,3.90625 L5.6640625,3.125 L9.1796875,3.125 L9.1796875,3.90625 C9.1796875,4.33773438 9.52945312,4.6875 9.9609375,4.6875 C10.3924219,4.6875 10.7421875,4.33773438 10.7421875,3.90625 L10.7421875,3.125 L14.296875,3.125 L14.296875,3.90625 C14.296875,4.33773438 14.6466406,4.6875 15.078125,4.6875 C15.5096094,4.6875 15.859375,4.33773438 15.859375,3.90625 L15.859375,3.125 L16.875,3.125 C17.7365625,3.125 18.4375,3.8259375 18.4375,4.6875 L18.4375,12.96875 C18.4375,13.4002344 18.7872656,13.75 19.21875,13.75 Z" id="Path"></path>
                <circle id="Oval" cx="4.8828125" cy="15" r="1"></circle>
                <circle id="Oval" cx="4.8828125" cy="8.203125" r="1"></circle>
                <circle id="Oval" cx="4.8828125" cy="11.6015625" r="1"></circle>
                <circle id="Oval" cx="8.28125" cy="11.6015625" r="1"></circle>
                <circle id="Oval" cx="8.28125" cy="8.203125" r="1"></circle>
                <circle id="Oval" cx="8.28125" cy="15" r="1"></circle>
            </g>
        </g>
    </g>
</svg>