<?xml version="1.0" encoding="UTF-8"?>
<svg width="20px" height="20px" viewBox="0 0 20 20" version="1.1" xmlns="http://www.w3.org/2000/svg" xmlns:xlink="http://www.w3.org/1999/xlink">
    <!-- Generator: sketchtool 61 (101010) - https://sketch.com -->
    <title>95DFB463-FDEC-4F78-8AEC-BB8A8ACDCA40</title>
    <desc>Created with sketchtool.</desc>
    <g id="Asset-Artboard-Page" stroke="none" stroke-width="1" fill="none" fill-rule="evenodd">
        <g id="Icon-/-Time" fill="#A8BAC8" fill-rule="nonzero">
            <g id="709511">
                <path d="M10,0 C4.48613281,0 0,4.48589844 0,10 C0,15.5141016 4.48613281,20 10,20 C15.5141016,20 20,15.5141016 20,10 C20,4.48589844 15.5138672,0 10,0 Z M10,18.5401563 C5.29101562,18.5401563 1.45984375,14.7089844 1.45984375,10 C1.45984375,5.29101562 5.29101562,1.45984375 10,1.45984375 C14.7089844,1.45984375 18.5401563,5.29097656 18.5401563,9.99976563 C18.5401563,14.7089844 14.7089844,18.5401563 10,18.5401563 Z" id="Shape"></path>
                <path d="M13.4063281,10 L10.2433203,10 L10.2433203,5.62042969 C10.2433203,5.21726563 9.9165625,4.89050781 9.51339844,4.89050781 C9.11023437,4.89050781 8.78347656,5.21726563 8.78347656,5.62042969 L8.78347656,10.7299219 C8.78347656,11.1330859 9.11023437,11.4598438 9.51339844,11.4598438 L13.4063281,11.4598438 C13.8094922,11.4598438 14.13625,11.1330859 14.13625,10.7299219 C14.13625,10.3267578 13.8094922,10 13.4063281,10 Z" id="Path"></path>
            </g>
        </g>
    </g>
</svg>