<?xml version="1.0" encoding="UTF-8"?>
<svg width="17px" height="20px" viewBox="0 0 17 20" version="1.1" xmlns="http://www.w3.org/2000/svg" xmlns:xlink="http://www.w3.org/1999/xlink">
    <!-- Generator: sketchtool 61 (101010) - https://sketch.com -->
    <title>09EA9301-F2F8-4792-B34F-C5E8E3180D53</title>
    <desc>Created with sketchtool.</desc>
    <g id="Asset-Artboard-Page" stroke="none" stroke-width="1" fill="none" fill-rule="evenodd">
        <g id="Icon-/-Data" fill="#A8BAC8" fill-rule="nonzero" stroke="#A8BAC8" stroke-width="0.2">
            <g id="149206">
                <path d="M16.7846664,2.94463654 C16.3986664,1.46020754 13.5256664,0 8.49999985,0 C3.47433328,0 0.600999999,1.46020754 0.215333339,2.94463654 C0.18733334,2.99550158 0.166666674,3.05121092 0.166666674,3.1141867 L0.166666674,3.28719707 L0.166666674,7.26643563 L0.166666674,7.43944601 L0.166666674,7.61245638 L0.166666674,11.4186846 L0.166666674,11.5916949 L0.166666674,11.7647053 L0.166666674,15.9169542 C0.166666674,15.9730096 0.181000007,16.0259508 0.205666673,16.0730096 C0.599333332,17.7667811 4.12133326,19.0311409 8.49999985,19.0311409 C12.8686664,19.0311409 16.3849997,17.7719715 16.7916664,16.0844283 C16.818333,16.0349473 16.833333,15.9778539 16.833333,15.9169542 L16.833333,11.7647053 L16.833333,11.5916949 L16.833333,11.4186846 L16.833333,7.61245638 L16.833333,7.43944601 L16.833333,7.26643563 L16.833333,3.28719707 L16.833333,3.1141867 C16.833333,3.05121092 16.8126664,2.99550158 16.7846664,2.94463654 Z M16.1403329,11.7595152 C16.1309995,11.8013837 16.1179995,11.8429062 16.1016662,11.8851207 C16.0883329,11.9193768 16.0719995,11.9536328 16.0539995,11.9878889 C16.0316662,12.0304494 16.0066662,12.07301 15.9769995,12.1155705 C15.9549995,12.1477505 15.9299995,12.1795844 15.9039995,12.2114183 C15.8669995,12.256747 15.8276662,12.3020757 15.7829995,12.3470584 C15.7559995,12.374394 15.7263329,12.4013837 15.6963329,12.4287193 C15.6416662,12.4782003 15.5846662,12.5273352 15.5209995,12.5761241 C15.4936662,12.5972314 15.4643329,12.6176466 15.4353329,12.6384079 C15.3599996,12.6923871 15.2813329,12.7460203 15.1949996,12.7986155 C15.1723329,12.8128023 15.1479996,12.8262971 15.1243329,12.840138 C15.0249996,12.8982695 14.9213329,12.9560549 14.8093329,13.0121103 C14.7949996,13.0193767 14.7799996,13.0262971 14.7653329,13.0332175 C14.6403329,13.0944632 14.5096662,13.1546708 14.3699996,13.2128023 C14.3659996,13.2145324 14.3619996,13.2159165 14.3579996,13.2176466 C13.6009996,13.5314874 12.6326663,13.7955013 11.504333,13.9685116 C11.4986663,13.9692037 11.4929997,13.9698957 11.487333,13.9709338 C11.2679997,14.0044978 11.0429997,14.0342556 10.8119997,14.0605531 C10.774333,14.0647054 10.7346664,14.0674736 10.6966664,14.0716258 C10.4949997,14.0934251 10.2909997,14.1134943 10.0809997,14.1294113 C9.98499973,14.1366777 9.88433307,14.1401379 9.7866664,14.1463663 C9.62866641,14.1560549 9.47233308,14.1667815 9.31033309,14.1726639 C9.04566643,14.1813144 8.77566644,14.1868507 8.49999978,14.1868507 C8.22433312,14.1868507 7.95433313,14.1813144 7.68933314,14.1716258 C7.52733315,14.1657435 7.37099982,14.1546708 7.21299982,14.1453282 C7.11533316,14.1394459 7.0146665,14.1356396 6.9186665,14.1283732 C6.70866651,14.1124563 6.50466651,14.0923871 6.30299985,14.0705877 C6.26499985,14.0664355 6.22533319,14.0636673 6.18766652,14.0595151 C5.95666653,14.0332175 5.73166654,14.0031137 5.51233321,13.9698957 C5.50666655,13.9692037 5.50099988,13.9685116 5.49533321,13.9674736 C4.36699992,13.7944632 3.39866662,13.5304494 2.64166664,13.2166085 C2.63766664,13.2152245 2.63366664,13.2134944 2.62966664,13.2117643 C2.48999998,13.1536328 2.35899998,13.0934252 2.23433332,13.0321795 C2.21999999,13.0249131 2.20466666,13.0179926 2.19033332,13.0110722 C2.07833333,12.9550169 1.97466666,12.8975774 1.87533333,12.8390999 C1.852,12.8252591 1.82733334,12.8117643 1.80466667,12.7975774 C1.71833334,12.7449823 1.63966667,12.6913491 1.56433334,12.6373698 C1.53566668,12.6166086 1.50600001,12.5961933 1.47866668,12.5750861 C1.41500002,12.5262972 1.35800002,12.4771622 1.30333335,12.4276812 C1.27366669,12.4006916 1.24366669,12.373702 1.21666669,12.3460203 C1.17200002,12.3010377 1.13266669,12.256055 1.09566669,12.2103802 C1.06966669,12.1785463 1.04466669,12.1467124 1.0226667,12.1145325 C0.993333363,12.0719719 0.968333364,12.0294114 0.945666698,11.9868508 C0.927666698,11.9525948 0.911666699,11.9183387 0.898000033,11.8840827 C0.8816667,11.8422141 0.8686667,11.8003456 0.859333367,11.7584771 C0.847000034,11.7034598 0.833333368,11.6474045 0.833333368,11.5916951 C0.833333368,11.5525948 0.837666701,11.5134944 0.843666701,11.4747401 C0.852000034,11.422491 0.847333368,11.3702418 0.833333368,11.3207609 L0.833333368,8.75190286 C0.842666701,8.7608994 0.854333367,8.76954992 0.864000034,8.77854646 C0.936666698,8.84498244 1.0106667,8.9110724 1.09400003,8.97474022 C2.34966665,9.96055333 4.86066657,10.7266433 8.49999978,10.7266433 C12.1239997,10.7266433 14.6286662,9.9667817 15.8896662,8.98685095 C15.9903329,8.91072638 16.0809995,8.83217967 16.1663329,8.75224888 L16.1666662,8.75190286 L16.1666662,11.3207609 C16.1526662,11.3702418 16.1479995,11.422491 16.1563329,11.4747401 C16.1626662,11.5134944 16.1666662,11.5525948 16.1666662,11.5916951 C16.1666662,11.6474045 16.1529995,11.7034598 16.1403329,11.7595152 Z M16.1666662,4.59965397 L16.1666662,7.16851199 C16.1526662,7.21799296 16.1479995,7.27024209 16.1563329,7.32249122 C16.1626662,7.36124555 16.1666662,7.40034589 16.1666662,7.43944623 C16.1666662,7.49515557 16.1529995,7.55121094 16.1403329,7.6072663 C16.1309995,7.64913481 16.1179995,7.6906573 16.1016662,7.73287183 C16.0883329,7.76712788 16.0719995,7.80138393 16.0539995,7.83563999 C16.0316662,7.87820054 16.0066662,7.92076109 15.9769995,7.96332164 C15.9549995,7.99550157 15.9299995,8.02733548 15.9039995,8.05916939 C15.8669995,8.10449811 15.8276662,8.14982683 15.7829995,8.19480952 C15.7559995,8.22214516 15.7263329,8.24913478 15.6963329,8.27647042 C15.6416662,8.32595139 15.5846662,8.37508633 15.5209995,8.42387526 C15.4936662,8.44498252 15.4643329,8.46539775 15.4353329,8.48615899 C15.3599996,8.54013823 15.2813329,8.59377144 15.1949996,8.6463666 C15.1723329,8.66055345 15.1479996,8.67404826 15.1243329,8.68788909 C15.0249996,8.74602057 14.9213329,8.80380604 14.8093329,8.8598614 C14.7949996,8.86712783 14.7799996,8.87404825 14.7653329,8.88096866 C14.6403329,8.94221433 14.5096662,9.00242194 14.3699996,9.06055343 C14.3659996,9.06228353 14.3619996,9.06366762 14.3579996,9.06539772 C13.6009996,9.37923854 12.6326663,9.64325237 11.504333,9.81626274 C11.4986663,9.81695478 11.4929997,9.81764682 11.487333,9.81868488 C11.2679997,9.8522489 11.0429997,9.88200668 10.8119997,9.90830426 C10.774333,9.91245651 10.7346664,9.91522467 10.6966664,9.91937692 C10.4949997,9.94117623 10.2909997,9.96124543 10.0809997,9.97716238 C9.98499973,9.98442882 9.88433307,9.98788903 9.7866664,9.9941174 C9.62866641,10.003806 9.47233308,10.0145326 9.31033309,10.020415 C9.04566643,10.0290655 8.77566644,10.0346018 8.49999978,10.0346018 C8.22433312,10.0346018 7.95433313,10.0290655 7.68933314,10.0193769 C7.52733315,10.0134946 7.37099982,10.0024219 7.21299982,9.99307934 C7.11533316,9.98719699 7.0146665,9.98339076 6.9186665,9.97612432 C6.70866651,9.96020737 6.50466651,9.94013817 6.30299985,9.91833886 C6.26499985,9.91418661 6.22533319,9.91141844 6.18766652,9.90726619 C5.95666653,9.88096862 5.73166654,9.85086481 5.51233321,9.81764682 C5.50666655,9.81695478 5.50099988,9.81626274 5.49533321,9.81522468 C4.36699992,9.6422143 3.39866662,9.37820047 2.64166664,9.06435966 C2.63766664,9.06297557 2.63366664,9.06124547 2.62966664,9.05951537 C2.48999998,9.00138388 2.35899998,8.94117627 2.23433332,8.8799306 C2.21999999,8.87266416 2.20466666,8.86574375 2.19033332,8.85882333 C2.07833333,8.80276797 1.97466666,8.74532853 1.87533333,8.68685102 C1.852,8.67301019 1.82733334,8.65951538 1.80466667,8.64532853 C1.71833334,8.59273338 1.63966667,8.53910016 1.56433334,8.48512093 C1.53566668,8.46435968 1.50600001,8.44394446 1.47866668,8.42283719 C1.41500002,8.37404827 1.35800002,8.32491332 1.30333335,8.27543236 C1.27366669,8.24844274 1.24366669,8.22145312 1.21666669,8.19377146 C1.17200002,8.14878876 1.13266669,8.10380607 1.09566669,8.05813133 C1.06966669,8.02629742 1.04466669,7.99446351 1.0226667,7.96228358 C0.993333363,7.91972303 0.968333364,7.87716248 0.945666698,7.83460193 C0.927666698,7.80034587 0.911666699,7.76608982 0.898000033,7.73183376 C0.8816667,7.68996525 0.8686667,7.64809674 0.859333367,7.60622823 C0.847000034,7.55121094 0.833333368,7.49515557 0.833333368,7.43944623 C0.833333368,7.40034589 0.837666701,7.36124555 0.843666701,7.32249122 C0.852000034,7.27024209 0.847333368,7.21799296 0.833333368,7.16851199 L0.833333368,4.59965397 C0.873333367,4.63737023 0.919000032,4.67439445 0.962333364,4.71176469 C0.986333363,4.73252594 1.0086667,4.75328718 1.03400003,4.77404843 C1.13400002,4.85570933 1.24200002,4.93633216 1.35900002,5.01487887 C1.38333335,5.03114184 1.41066668,5.0470588 1.43600001,5.06332177 C1.53400001,5.12664357 1.63766667,5.18858128 1.74666667,5.24948093 C1.787,5.27197228 1.82733334,5.29411761 1.869,5.31626294 C1.99066666,5.3806228 2.11833333,5.44325255 2.25266665,5.50380618 C2.27466665,5.51384078 2.29466665,5.52422141 2.31699999,5.53390999 C2.47333331,5.60276812 2.63933331,5.66851206 2.81199997,5.73217987 C2.85966663,5.74982693 2.90966663,5.76643593 2.95866663,5.78373697 C3.09599996,5.83183385 3.23799996,5.87785461 3.38499995,5.92249128 C3.43799995,5.93840824 3.48999995,5.95501723 3.54433328,5.97024215 C3.73933327,6.02629751 3.9406666,6.0795847 4.15199992,6.12871965 C4.18099992,6.13564006 4.21233326,6.1411764 4.24166659,6.14775079 C4.42799992,6.18996532 4.62133324,6.22906567 4.8199999,6.26574386 C4.88733323,6.27820061 4.95566656,6.28996532 5.02433323,6.30173002 C5.21333322,6.33390995 5.40799988,6.36332171 5.60766654,6.39031133 C5.65899987,6.39723175 5.70799987,6.40519023 5.75999987,6.41176462 C6.00799986,6.44290649 6.26466652,6.46955008 6.52833318,6.49238745 C6.59333318,6.49792379 6.66099984,6.50207603 6.72699984,6.50692032 C6.93799983,6.52283728 7.15366649,6.53598607 7.37433315,6.54636669 C7.45466648,6.55017292 7.53466648,6.55397915 7.61666648,6.55709333 C7.9039998,6.56712793 8.19666646,6.57439437 8.49999978,6.57439437 C8.8033331,6.57439437 9.09599976,6.56712793 9.38333308,6.55709333 C9.46499975,6.55397915 9.54499975,6.55017292 9.62566641,6.54636669 C9.84633307,6.53598607 10.0619997,6.52283728 10.2729997,6.50692032 C10.3389997,6.50173001 10.4063331,6.49792379 10.4716664,6.49238745 C10.735333,6.4698961 10.9919997,6.44290649 11.2399997,6.41176462 C11.2919997,6.40519023 11.3409997,6.39723175 11.392333,6.39031133 C11.5919997,6.36332171 11.786333,6.33390995 11.9756663,6.30173002 C12.044333,6.28996532 12.1126663,6.27820061 12.1799997,6.26574386 C12.3786663,6.22906567 12.5719996,6.18996532 12.758333,6.14775079 C12.7876663,6.1411764 12.8189996,6.13529404 12.8479996,6.12871965 C13.059333,6.0795847 13.2606663,6.02595149 13.4556663,5.97024215 C13.5099996,5.95467121 13.5619996,5.93840824 13.6149996,5.92249128 C13.7619996,5.87785461 13.9039996,5.83183385 14.0413329,5.78373697 C14.0903329,5.76643593 14.1403329,5.74982693 14.1879996,5.73217987 C14.3606663,5.66851206 14.5269996,5.60276812 14.6829996,5.53390999 C14.7053329,5.52422141 14.7253329,5.51384078 14.7473329,5.50380618 C14.8816662,5.44290653 15.0093329,5.3806228 15.1309996,5.31626294 C15.1726662,5.29411761 15.2133329,5.27197228 15.2533329,5.24948093 C15.3623329,5.1889273 15.4659995,5.12698959 15.5639995,5.06332177 C15.5893329,5.0470588 15.6166662,5.03114184 15.6409995,5.01487887 C15.7579995,4.93633216 15.8659995,4.85605535 15.9659995,4.77404843 C15.9909995,4.75328718 16.0133329,4.73252594 16.0376662,4.71176469 C16.0809995,4.67439445 16.1266662,4.63737023 16.1666662,4.59965397 Z M8.49999978,0.692041551 C13.018333,0.692041551 16.1666662,2.05951557 16.1666662,3.28719721 C16.1666662,4.51487885 13.018333,5.88235287 8.49999978,5.88235287 C3.9816666,5.88235287 0.833333368,4.51487885 0.833333368,3.28719721 C0.833333368,2.05951557 3.9816666,0.692041551 8.49999978,0.692041551 Z M16.1666662,15.8141871 C16.1619995,15.829412 16.1586662,15.8449829 16.1559995,15.8608999 C15.9669995,17.0577856 12.845333,18.3391004 8.49999978,18.3391004 C4.15466659,18.3391004 1.03300003,17.0577856 0.844000034,15.8608999 C0.841333368,15.8453289 0.837666701,15.830104 0.833333368,15.8155711 L0.833333368,12.9041526 C0.842666701,12.9131491 0.854333367,12.9217996 0.864000034,12.9307962 C0.936666698,12.9972322 1.0106667,13.0633221 1.09400003,13.12699 C2.34966665,14.1128031 4.86066657,14.878893 8.49999978,14.878893 C12.1239997,14.878893 14.6286662,14.1190314 15.8896662,13.1391007 C15.9903329,13.0629761 16.0809995,12.9844294 16.1663329,12.9044986 L16.1666662,12.9041526 L16.1666662,15.8141871 Z" id="Shape"></path>
            </g>
        </g>
    </g>
</svg>