<?xml version="1.0" encoding="UTF-8"?>
<svg width="20px" height="20px" viewBox="0 0 20 20" version="1.1" xmlns="http://www.w3.org/2000/svg" xmlns:xlink="http://www.w3.org/1999/xlink">
    <!-- Generator: sketchtool 61 (101010) - https://sketch.com -->
    <title>A124E169-BD22-4447-9749-94AFFEC40E96</title>
    <desc>Created with sketchtool.</desc>
    <g id="Asset-Artboard-Page" stroke="none" stroke-width="1" fill="none" fill-rule="evenodd">
        <g id="Icon-/-hELP" fill="#A8BAC8" fill-rule="nonzero" stroke="#A8BAC8" stroke-width="0.2">
            <g id="1007690">
                <path d="M17.0710547,2.92894531 C15.1823047,1.04019531 12.6710938,0 10,0 C7.32890625,0 4.81765625,1.04019531 2.92890625,2.92894531 C1.04019531,4.81769531 0,7.32894531 0,10 C0,12.6710547 1.04019531,15.1823047 2.92890625,17.0710547 C4.81761719,18.9598047 7.32886719,20 10,20 C12.6711328,20 15.1823047,18.9598047 17.0710937,17.0710937 C18.9598828,15.1823828 20,12.6710938 20,10 C20,7.32890625 18.9598047,4.81769531 17.0710547,2.92894531 Z M16.2425781,16.2425781 C14.5751563,17.9100391 12.358125,18.8283203 10,18.8283203 C7.641875,18.8283203 5.42488281,17.9100391 3.75742188,16.2425781 C2.09,14.5751563 1.17164063,12.3581641 1.17164063,10 C1.17164063,7.64183594 2.09,5.42488281 3.75742188,3.75746094 C5.42484375,2.08996094 7.641875,1.17167969 10,1.17167969 C12.358125,1.17167969 14.5751172,2.08996094 16.2425781,3.75742187 C17.9100391,5.42492187 18.8283594,7.64191406 18.8283594,10.0000391 C18.8283594,12.3581641 17.91,14.5751563 16.2425781,16.2425781 Z" id="Shape"></path>
                <path d="M10,3.50464844 C8.76859375,3.50464844 7.76675781,4.50644531 7.76675781,5.73789063 C7.76675781,6.96933594 8.76855469,7.97113281 10,7.97113281 C11.2314453,7.97113281 12.2332422,6.96933594 12.2332422,5.73789063 C12.2332422,4.50644531 11.2314062,3.50464844 10,3.50464844 Z M10,6.79941406 C9.41464844,6.79941406 8.93839844,6.32316406 8.93839844,5.7378125 C8.93839844,5.15246094 9.41460937,4.67621094 10,4.67621094 C10.5853906,4.67621094 11.0616016,5.15246094 11.0616016,5.7378125 C11.0616016,6.32320313 10.5853516,6.79941406 10,6.79941406 Z" id="Shape"></path>
                <path d="M10,9.02363281 C8.76859375,9.02363281 7.76675781,10.0254297 7.76675781,11.256875 L7.76675781,14.2116016 C7.76675781,15.4430078 8.76855469,16.4448437 10,16.4448437 C11.2314453,16.4448437 12.2332422,15.4430469 12.2332422,14.2116016 L12.2332422,11.256875 C12.2332422,10.0254297 11.2314062,9.02363281 10,9.02363281 Z M11.0615625,14.2115625 C11.0615625,14.7969141 10.5853516,15.2731641 9.99996094,15.2731641 C9.41457031,15.2731641 8.93835937,14.7969141 8.93835937,14.2115625 L8.93835937,11.2568359 C8.93835937,10.6714844 9.41457031,10.1952344 9.99996094,10.1952344 C10.5853516,10.1952344 11.0615625,10.6714844 11.0615625,11.2568359 L11.0615625,14.2115625 Z" id="Shape"></path>
            </g>
        </g>
    </g>
</svg>