<?xml version="1.0" encoding="UTF-8"?>
<svg width="17px" height="21px" viewBox="0 0 17 21" version="1.1" xmlns="http://www.w3.org/2000/svg" xmlns:xlink="http://www.w3.org/1999/xlink">
    <!-- Generator: sketchtool 61 (101010) - https://sketch.com -->
    <title>541AB24F-48BE-4B02-BC83-26B5F4133C8D</title>
    <desc>Created with sketchtool.</desc>
    <g id="Page-1" stroke="none" stroke-width="1" fill="none" fill-rule="evenodd">
        <g id="01A" transform="translate(-68.000000, -274.000000)" fill="#A8BAC8" fill-rule="nonzero" stroke="#A8BAC8" stroke-width="0.5">
            <g id="Group-21">
                <g id="86110" transform="translate(69.000000, 275.000000)">
                    <path d="M13.8461538,1.23076923 L10.7691923,1.23076923 C10.7689231,1.23076923 10.7686923,1.23080769 10.7684231,1.23080769 C10.4874615,0.857384615 10.0407308,0.615384615 9.53846154,0.615384615 L8.75423077,0.615384615 C8.53715385,0.240076923 8.13388462,0 7.69230769,0 C7.25073077,0 6.84746154,0.240076923 6.63038462,0.615384615 L5.84615385,0.615384615 C5.34388462,0.615384615 4.89715385,0.857384615 4.61619231,1.23080769 C4.61592308,1.23080769 4.61565385,1.23076923 4.61538462,1.23076923 L1.53846154,1.23076923 C0.690153846,1.23076923 0,1.92092308 0,2.76923077 L0,18.1538462 C0,19.0021538 0.690153846,19.6923077 1.53846154,19.6923077 L13.8461538,19.6923077 C14.6944615,19.6923077 15.3846154,19.0021538 15.3846154,18.1538462 L15.3846154,2.76923077 C15.3846154,1.92092308 14.6944615,1.23076923 13.8461538,1.23076923 Z M4.92307692,2.15384615 C4.92307692,1.64488462 5.33719231,1.23076923 5.84615385,1.23076923 L6.82576923,1.23076923 C6.95596154,1.23076923 7.07207692,1.14880769 7.11569231,1.02615385 C7.203,0.780461538 7.43473077,0.615384615 7.69230769,0.615384615 C7.94988462,0.615384615 8.18161538,0.780461538 8.26892308,1.02615385 C8.31253846,1.14880769 8.42865385,1.23076923 8.55884615,1.23076923 L9.53846154,1.23076923 C10.0474231,1.23076923 10.4615385,1.64488462 10.4615385,2.15384615 L10.4615385,3.07692308 L4.92307692,3.07692308 L4.92307692,2.15384615 Z M14.7692308,18.1538462 C14.7692308,18.6628077 14.3551154,19.0769231 13.8461538,19.0769231 L1.53846154,19.0769231 C1.0295,19.0769231 0.615384615,18.6628077 0.615384615,18.1538462 L0.615384615,2.76923077 C0.615384615,2.26026923 1.0295,1.84615385 1.53846154,1.84615385 L4.33865385,1.84615385 C4.31838462,1.94561538 4.30769231,2.0485 4.30769231,2.15384615 L4.30769231,3.38461538 C4.30769231,3.55453846 4.44546154,3.69230769 4.61538462,3.69230769 L10.7692308,3.69230769 C10.9391538,3.69230769 11.0769231,3.55453846 11.0769231,3.38461538 L11.0769231,2.15384615 C11.0769231,2.0485 11.0662308,1.94561538 11.0459615,1.84615385 L13.8461538,1.84615385 C14.3551154,1.84615385 14.7692308,2.26026923 14.7692308,2.76923077 L14.7692308,18.1538462 Z" id="Shape"></path>
                    <path d="M4.92307692,7.53846154 L10.1538462,7.53846154 C10.3237692,7.53846154 10.4615385,7.40069231 10.4615385,7.23076923 C10.4615385,7.06084615 10.3237692,6.92307692 10.1538462,6.92307692 L4.92307692,6.92307692 C4.75315385,6.92307692 4.61538462,7.06084615 4.61538462,7.23076923 C4.61538462,7.40069231 4.75315385,7.53846154 4.92307692,7.53846154 Z" id="Path"></path>
                    <path d="M4.92307692,11.3846154 L10.1538462,11.3846154 C10.3237692,11.3846154 10.4615385,11.2468462 10.4615385,11.0769231 C10.4615385,10.907 10.3237692,10.7692308 10.1538462,10.7692308 L4.92307692,10.7692308 C4.75315385,10.7692308 4.61538462,10.907 4.61538462,11.0769231 C4.61538462,11.2468462 4.75315385,11.3846154 4.92307692,11.3846154 Z" id="Path"></path>
                    <path d="M4.92307692,15.4615385 L10.1538462,15.4615385 C10.3237692,15.4615385 10.4615385,15.3237692 10.4615385,15.1538462 C10.4615385,14.9839231 10.3237692,14.8461538 10.1538462,14.8461538 L4.92307692,14.8461538 C4.75315385,14.8461538 4.61538462,14.9839231 4.61538462,15.1538462 C4.61538462,15.3237692 4.75315385,15.4615385 4.92307692,15.4615385 Z" id="Path"></path>
                </g>
            </g>
        </g>
    </g>
</svg>