<?xml version="1.0" encoding="UTF-8"?>
<svg width="22px" height="22px" viewBox="0 0 22 22" version="1.1" xmlns="http://www.w3.org/2000/svg" xmlns:xlink="http://www.w3.org/1999/xlink">
    <!-- Generator: sketchtool 61 (101010) - https://sketch.com -->
    <title>158DFAFA-B797-49E1-875E-14C274742D4D</title>
    <desc>Created with sketchtool.</desc>
    <g id="Page-1" stroke="none" stroke-width="1" fill="none" fill-rule="evenodd">
        <g id="01A" transform="translate(-66.000000, -376.000000)" fill="#A8BAC8" fill-rule="nonzero" stroke="#A8BAC8" stroke-width="0.4">
            <g id="Group-21">
                <g id="1159633" transform="translate(67.000000, 377.000000)">
                    <path d="M17.9764614,12.74491 C17.7085322,12.74491 17.4913844,12.9631855 17.4913844,13.2325063 L17.4913844,17.5618281 C17.490437,18.3694094 16.8395622,19.0238551 16.0361534,19.024617 L2.42538506,19.024617 C1.62197626,19.0238551 0.971101429,18.3694094 0.970154026,17.5618281 L0.970154026,4.85556388 C0.971101429,4.04817298 1.62197626,3.39372733 2.42538506,3.392775 L6.73233836,3.392775 C7.00026764,3.392775 7.21741537,3.17449945 7.21741537,2.90517871 C7.21741537,2.63604843 7.00026764,2.41758242 6.73233836,2.41758242 L2.42538506,2.41758242 C1.08649674,2.41910616 0.00151586566,3.5097219 0,4.85556388 L0,17.5620185 C0.00151586566,18.9078605 1.08649674,19.9984763 2.42538506,20 L16.0361534,20 C17.3750417,19.9984763 18.4600226,18.9078605 18.4615385,17.5620185 L18.4615385,13.2325063 C18.4615385,12.9631855 18.2443907,12.74491 17.9764614,12.74491 Z" id="Path"></path>
                    <path d="M14.8882292,0.791033475 L6.25438213,9.54928358 C6.13606354,9.669307 6.05048962,9.8182453 6.00583836,9.98176672 L4.87046207,14.1397895 C4.7771287,14.4805536 4.87196306,14.8460531 5.11855491,15.0965816 C5.3659191,15.3471265 5.72599234,15.4433707 6.06216203,15.349007 L10.1612617,14.1970408 C10.3224423,14.1517512 10.4692649,14.0649443 10.5875835,13.944921 L19.221249,5.1864715 C20.2595214,4.13089461 20.2595214,2.4226774 19.2216223,1.36747953 L18.6533646,0.791033485 C17.6136345,-0.263677827 15.9279594,-0.263677827 14.8882292,0.791033475 Z M9.90236756,13.2496329 L5.80471181,14.4011525 L6.93975711,10.2443276 L15.5735205,1.48619899 C16.2347747,0.815416976 17.3068191,0.815416976 17.9680732,1.48619899 L18.5359502,2.06225835 L18.5555539,2.08251407 C19.195942,2.755015 19.1894037,3.82696863 18.5355695,4.49170028 L9.90236756,13.2496329 Z" id="Shape"></path>
                </g>
            </g>
        </g>
    </g>
</svg>