<?xml version="1.0" encoding="UTF-8"?>
<svg width="20px" height="19px" viewBox="0 0 20 19" version="1.1" xmlns="http://www.w3.org/2000/svg" xmlns:xlink="http://www.w3.org/1999/xlink">
    <!-- Generator: sketchtool 61 (101010) - https://sketch.com -->
    <title>8409F8E8-5589-40A0-B4C0-1C51F27225AD</title>
    <desc>Created with sketchtool.</desc>
    <g id="Asset-Artboard-Page" stroke="none" stroke-width="1" fill="none" fill-rule="evenodd">
        <g id="Icon-/-Sheet" fill="#A8BAC8" fill-rule="nonzero" stroke="#A8BAC8" stroke-width="0.4">
            <g id="1159626">
                <path d="M17.8622775,0.016367776 L5.82843902,0.016367776 C4.64828744,0.0177039227 3.69194041,0.974050962 3.69060426,2.15420253 L3.69060426,8.87117917 L2.13783476,8.87117917 C0.957683186,8.87251531 0.00133614672,9.82886231 -2.84217094e-14,11.0090139 L-2.84217094e-14,16.1287941 C0.00133614672,17.3834359 1.0181438,18.4002435 2.27278558,18.4017467 L17.265855,18.4017467 C18.7751997,18.4000765 19.998275,17.1768342 19.9999452,15.6674895 L19.9999452,2.15420253 C19.9987761,0.974050962 19.0424291,0.0177039227 17.8622775,0.016367776 L17.8622775,0.016367776 Z M3.69060426,16.1287941 C3.69060426,16.9117761 3.05593457,17.5466128 2.27295258,17.5466128 C1.4899706,17.5466128 0.855133903,16.9117761 0.855133903,16.1287941 L0.855133903,11.0093479 C0.855968984,10.3011902 1.429844,9.72731516 2.13783476,9.72664708 L3.69060426,9.72664708 L3.69060426,16.1287941 Z M19.1449783,15.6674895 C19.1436422,16.7048404 18.3030389,17.5452766 17.265855,17.5466128 L4.04835757,17.5466128 C4.37086995,17.1444326 4.54640624,16.6442127 4.54590517,16.1287941 L4.54590517,2.15420253 C4.54657329,1.44604477 5.12044826,0.872169795 5.82860602,0.871501679 L17.8622775,0.871501679 C18.5702682,0.872169795 19.1441433,1.44604477 19.1449783,2.15420253 L19.1449783,15.6674895 Z" id="Shape"></path>
                <path d="M16.3263768,12.1794785 L7.33026793,12.1794785 C7.09427103,12.1794785 6.90270098,12.3708815 6.90270098,12.6070454 C6.90270098,12.8432093 7.09427103,13.0346124 7.33026793,13.0346124 L16.3263768,13.0346124 C16.5625408,13.0346124 16.7539438,12.8432093 16.7539438,12.6070454 C16.7539438,12.3708815 16.5625408,12.1794785 16.3263768,12.1794785 Z" id="Path"></path>
                <path d="M16.3263768,8.75894284 L7.33026793,8.75894284 C7.09427103,8.75894284 6.90270098,8.95034584 6.90270098,9.18650979 C6.90270098,9.4226737 7.09427103,9.61407674 7.33026793,9.61407674 L16.3263768,9.61407674 C16.5625408,9.61407674 16.7539438,9.4226737 16.7539438,9.18650979 C16.7539438,8.95034584 16.5625408,8.75894284 16.3263768,8.75894284 Z" id="Path"></path>
                <path d="M7.33043494,5.76597418 L12.0508743,5.76597418 C12.2870383,5.76597418 12.4784413,5.57457114 12.4784413,5.33840723 C12.4784413,5.10224327 12.2870383,4.91084028 12.0508743,4.91084028 L7.33043494,4.91084028 C7.09443804,4.91084028 6.90286799,5.10224327 6.90286799,5.33840723 C6.90286799,5.57457114 7.09443804,5.76597418 7.33043494,5.76597418 L7.33043494,5.76597418 Z" id="Path"></path>
            </g>
        </g>
    </g>
</svg>