<?xml version="1.0" encoding="UTF-8"?>
<svg width="52px" height="49px" viewBox="0 0 52 49" version="1.1" xmlns="http://www.w3.org/2000/svg" xmlns:xlink="http://www.w3.org/1999/xlink">
    <!-- Generator: sketchtool 61.1 (101010) - https://sketch.com -->
    <title>837F629C-B0CB-41DF-B06A-9E7CCFA2A02B</title>
    <desc>Created with sketchtool.</desc>
    <defs>
        <filter x="-9.6%" y="-6.1%" width="119.2%" height="114.2%" filterUnits="objectBoundingBox" id="filter-1">
            <feOffset dx="0" dy="5" in="SourceAlpha" result="shadowOffsetOuter1"></feOffset>
            <feGaussianBlur stdDeviation="5" in="shadowOffsetOuter1" result="shadowBlurOuter1"></feGaussianBlur>
            <feColorMatrix values="0 0 0 0 0   0 0 0 0 0   0 0 0 0 0  0 0 0 0.15 0" type="matrix" in="shadowBlurOuter1" result="shadowMatrixOuter1"></feColorMatrix>
            <feMerge>
                <feMergeNode in="shadowMatrixOuter1"></feMergeNode>
                <feMergeNode in="SourceGraphic"></feMergeNode>
            </feMerge>
        </filter>
    </defs>
    <g id="Page-1" stroke="none" stroke-width="1" fill="none" fill-rule="evenodd">
        <g id="01F" transform="translate(-987.000000, -397.000000)" fill="#7D84B2" fill-rule="nonzero" stroke="#7D84B2">
            <g id="Group-5" transform="translate(802.000000, 343.000000)">
                <g id="Group" filter="url(#filter-1)" transform="translate(146.000000, 0.000000)">
                    <g id="suitcase" transform="translate(50.000000, 60.000000)">
                        <path d="M28.5,4.5 L22,4.5 L22,2.5 C21.998291,1.11987306 20.8801269,0.0017089875 19.5,0 L10.5,0 C9.11987306,0.0017089875 8.001709,1.11987306 8,2.5 L8,4.5 L1.5,4.5 C0.671630875,4.5 0,5.17163087 0,6 L0,17.1298828 C0.003173825,17.7641601 0.402832,18.3283691 1,18.5415039 L1,25.5 C1,26.3283691 1.67163087,27 2.5,27 L27.5,27 C28.3283691,27 29,26.3283691 29,25.5 L29,18.5419922 C29.597168,18.3286133 29.9970703,17.7641601 30,17.1298828 L30,6 C30,5.17163087 29.3283691,4.5 28.5,4.5 Z M21,4.5 L9,4.5 L9,1.5 L21,1.5 L21,4.5 Z M28,25.5 C28,25.7761231 27.7761231,26 27.5,26 L2.5,26 C2.22387694,26 2,25.7761231 2,25.5 L2,18.7133789 L13,20.2304688 L13,21.5 C13,22.3283691 13.6716309,23 14.5,23 L15.5,23 C16.3283691,23 17,22.3283691 17,21.5 L17,20.2304688 L28,18.7133789 L28,25.5 Z M16,21.5 C16,21.7761231 15.7761231,22 15.5,22 L14.5,22 C14.2238769,22 14,21.7761231 14,21.5 L14,18.5 C14,18.2238769 14.2238769,18 14.5,18 L15.5,18 C15.7761231,18 16,18.2238769 16,18.5 L16,21.5 Z M28.9999998,17.1298828 C28.9999998,17.3791504 28.8168945,17.5905762 28.5700684,17.6254883 L28.4313965,17.6445313 L16.9999998,19.2209473 L16.9999998,18.5 C16.9999998,17.6716309 16.3283691,17 15.4999998,17 L14.4999998,17 C13.6716309,17 12.9999998,17.6716309 12.9999998,18.5 L12.9999998,19.2209473 L1.43041994,17.6254883 C1.18359375,17.5908203 0.999999757,17.3793945 0.999999757,17.1298828 L0.999999757,6 C0.999999757,5.72387694 1.22387694,5.5 1.49999976,5.5 L28.4999998,5.5 C28.7761231,5.5 28.9999998,5.72387694 28.9999998,6 L28.9999998,17.1298828 Z" id="Shape"></path>
                    </g>
                </g>
            </g>
        </g>
    </g>
</svg>