<?xml version="1.0" encoding="UTF-8"?>
<svg width="16px" height="20px" viewBox="0 0 16 20" version="1.1" xmlns="http://www.w3.org/2000/svg" xmlns:xlink="http://www.w3.org/1999/xlink">
    <!-- Generator: sketchtool 61 (101010) - https://sketch.com -->
    <title>31514D36-FB5A-4DD4-8542-86B34D7500C9</title>
    <desc>Created with sketchtool.</desc>
    <g id="Asset-Artboard-Page" stroke="none" stroke-width="1" fill="none" fill-rule="evenodd">
        <g id="Icon-/-Upload" fill="#527B96" fill-rule="nonzero" stroke="#527B96" stroke-width="0.2">
            <g id="1159795">
                <path d="M5.22291667,3.74913196 L7.65052084,1.50503471 L7.65052084,11.9256944 C7.65052084,12.1711805 7.84947916,12.3701389 8.09496529,12.3701389 C8.34027778,12.3701389 8.53940973,12.1711805 8.53940973,11.9256944 L8.53940973,1.50503471 L10.9668403,3.74913196 C11.0833333,3.85798613 11.249132,3.89618053 11.4013889,3.84930556 C11.5538195,3.80225693 11.6692708,3.67725693 11.7041667,3.52187502 C11.7390625,3.36631947 11.6880208,3.20399307 11.5703125,3.09635418 L8.39652778,0.1625 C8.22621529,0.00503471111 7.96354169,0.00503471111 7.79322916,0.1625 L4.61944444,3.09652778 C4.50104169,3.20381947 4.44930556,3.36649307 4.48402778,3.52256942 C4.51875,3.67864582 4.63472222,3.80399307 4.7875,3.85086804 C4.94027778,3.89774307 5.10659724,3.85885418 5.22291667,3.74913196 Z" id="Path"></path>
                <path d="M13.7447916,6.47656249 L11.5907986,6.47656249 C11.3453125,6.47656249 11.1463542,6.67552084 11.1463542,6.92100693 C11.1463542,7.16649307 11.3453125,7.36545138 11.5907986,7.36545138 L13.7447916,7.36545138 C14.4809028,7.36631947 15.0772569,7.9626736 15.078125,8.69878471 L15.078125,17.1651042 C15.0772569,17.9012153 14.4809028,18.4975694 13.7447916,18.4984375 L2.22708333,18.4984375 C1.49097222,18.4975694 0.894444444,17.9012153 0.89375,17.1651042 L0.89375,8.69878471 C0.894444444,7.9626736 1.49097222,7.36631947 2.22708333,7.36545138 L4.3810764,7.36545138 C4.62656249,7.36545138 4.82552084,7.16649307 4.82552084,6.92100693 C4.82552084,6.67552084 4.62656249,6.47656249 4.3810764,6.47656249 L2.22708333,6.47656249 C1.0003472,6.47795138 0.00625,7.47204862 0.00486111111,8.69878471 L0.00486111111,17.1651042 C0.00625,18.3918403 1.0003472,19.3859375 2.22708333,19.3873264 L13.7447916,19.3873264 C14.9715278,19.3859375 15.965625,18.3918403 15.9670139,17.1651042 L15.9670139,8.69878471 C15.965625,7.47204862 14.9715278,6.47795138 13.7447916,6.47656249 L13.7447916,6.47656249 Z" id="Path"></path>
            </g>
        </g>
    </g>
</svg>