<?xml version="1.0" encoding="UTF-8"?>
<svg width="30px" height="30px" viewBox="0 0 30 30" version="1.1" xmlns="http://www.w3.org/2000/svg" xmlns:xlink="http://www.w3.org/1999/xlink">
    <!-- Generator: sketchtool 61.1 (101010) - https://sketch.com -->
    <title>CFE2AA9F-08CD-46EC-9362-D86B4691B063</title>
    <desc>Created with sketchtool.</desc>
    <g id="Page-1" stroke="none" stroke-width="1" fill="none" fill-rule="evenodd">
        <g id="01F" transform="translate(-173.000000, -403.000000)" fill="#7D84B2" fill-rule="nonzero">
            <g id="Group-4" transform="translate(123.000000, 343.000000)">
                <g id="Group-3" transform="translate(50.000000, 60.000000)">
                    <path d="M28.3714093,1.57680036 C25.7300286,-1.06564734 20.4900077,-0.277300055 14.9737106,3.12242798 C9.45741353,-0.27623311 4.21745537,-1.06351344 1.57607462,1.57680036 C-1.06530614,4.21711417 -0.276958857,9.45820204 3.12170223,14.9744991 C-0.277021619,20.4907962 -1.0653689,25.7296874 1.57607462,28.3721979 C2.75071897,29.4645619 4.31749721,30.0348757 5.91948466,29.9531602 C9.1613675,29.7375744 12.2869533,28.660838 14.9737734,26.8340389 C17.6605934,28.660838 20.7861792,29.7376372 24.0280621,29.9531602 C25.6299867,30.0343736 27.1966395,29.4641225 28.3714721,28.3721979 C31.0128529,25.7297502 30.2245056,20.4907962 26.8258445,14.9744991 C30.2245056,9.45820204 31.0128529,4.21924806 28.3714093,1.57680036 Z M23.9808654,2.12094262 C25.0306144,2.05052421 26.0653006,2.40041961 26.8568487,3.09355769 C28.4870788,4.72272087 28.0682713,8.54778363 25.5211583,13.0175953 C24.3279993,11.3699175 23.0048612,9.82039869 21.5644219,8.38391333 C20.1268696,6.94096354 18.5759073,5.61562881 16.9264093,4.4207125 C19.0507608,3.08087986 21.4750495,2.29058697 23.9808654,2.12094262 Z M3.09063529,3.09136103 L3.09383612,3.09349492 C3.88456834,2.40123551 4.91793654,2.05140287 5.96661855,2.12087986 C8.47274826,2.29146564 10.897037,3.08288823 13.0210746,4.42378781 C9.72232985,6.81889241 6.82180683,9.71903886 4.42632566,13.0174698 C1.87914993,8.54772087 1.4603424,4.72272087 3.09063529,3.09136103 Z M3.09063529,26.8575744 C1.46040516,25.2262146 1.87921269,21.4012146 4.42632566,16.9314029 C5.61948466,18.5790807 6.94262273,20.1285995 8.38306206,21.5650849 C9.818606,23.0076581 11.3674344,24.3329928 13.0146102,25.5282857 C8.54699512,28.0701267 4.72086541,28.4889343 3.09063529,26.8575744 Z M9.89768549,20.0473861 C8.33040516,18.4905242 6.91011227,16.7923861 5.65494491,14.9744991 C8.18435913,11.3386623 11.3396939,8.18119367 14.9737734,5.64926898 C16.7929156,6.90650748 18.4921206,8.32893425 20.0498612,9.89841124 C21.6172671,11.4562774 23.03756,13.1555451 24.2926018,14.9744991 C23.0365558,16.7936414 21.615196,18.4928464 20.0466604,20.050587 C18.4897985,21.6178673 16.7916604,23.0381602 14.9737734,24.2933276 C13.1546311,23.0372815 11.4553633,21.6159217 9.89768549,20.0473861 Z M26.8568487,26.8575744 L26.8547148,26.8575744 C25.223355,28.4888715 21.398355,28.070064 16.9306771,25.522951 C18.5776646,24.3293527 20.126493,23.0059008 21.5622252,21.5651476 C23.0026646,20.1286623 24.3258654,18.5791435 25.5189616,16.9314656 C28.068334,21.4012774 28.4871416,25.2262774 26.8568487,26.8575744 Z" id="Shape"></path>
                    <path d="M14.9737734,10.6899594 C12.6074763,10.6899594 10.6892336,12.608202 10.6892336,14.9744991 C10.6892336,17.3407962 12.6074763,19.2590389 14.9737734,19.2590389 C17.3400704,19.2590389 19.2583131,17.3407962 19.2583131,14.9744991 C19.2583131,12.608202 17.3400077,10.6899594 14.9737734,10.6899594 Z M14.9737734,17.1167376 C13.7906562,17.1167376 12.8315349,16.1576163 12.8315349,14.9744991 C12.8315349,13.791382 13.7906562,12.8322606 14.9737734,12.8322606 C16.1568905,12.8322606 17.1160119,13.791382 17.1160119,14.9744991 C17.1160119,16.1576163 16.1568905,17.1167376 14.9737734,17.1167376 Z" id="Shape"></path>
                </g>
            </g>
        </g>
    </g>
</svg>