<?xml version="1.0" encoding="UTF-8"?>
<svg width="142px" height="150px" viewBox="0 0 142 150" version="1.1" xmlns="http://www.w3.org/2000/svg" xmlns:xlink="http://www.w3.org/1999/xlink">
    <!-- Generator: sketchtool 61.1 (101010) - https://sketch.com -->
    <title>CA7DAF9A-516C-48B6-A454-B65C6B7076C5</title>
    <desc>Created with sketchtool.</desc>
    <g id="Page-1" stroke="none" stroke-width="1" fill="none" fill-rule="evenodd">
        <g id="01F" transform="translate(-1062.000000, -1245.000000)">
            <g id="Group-10" transform="translate(992.000000, 1245.000000)">
                <g id="01" transform="translate(73.000000, 0.000000)">
                    <path d="M132.1,109.565 L75.765,144.535 C70.9872165,147.50478 64.9377835,147.50478 60.16,144.535 L3.82,109.565 C2.08937976,108.485829 0.88007571,106.741062 0.47699939,104.741766 C0.0739230695,102.742469 0.512716454,100.665431 1.69,99 C2.25838282,99.8030316 2.98281154,100.483246 3.82,101 L60.16,135.97 C64.9391309,138.935057 70.9858691,138.935057 75.765,135.97 L132.1,100.97 C132.937188,100.453246 133.661617,99.7730316 134.23,98.97 C135.417339,100.637441 135.86202,102.721766 135.458571,104.728595 C135.055122,106.735424 133.839486,108.485962 132.1,109.565 L132.1,109.565 Z" id="Path" stroke="#7D84B2" stroke-width="5" fill="#7D84B2" fill-rule="nonzero"></path>
                    <path d="M1.69,99 C2.25838282,99.8030316 2.98281154,100.483246 3.82,101 L60.16,135.97 C64.9391309,138.935057 70.9858691,138.935057 75.765,135.97 L132.1,100.97 C132.937188,100.453246 133.661617,99.7730316 134.23,98.97" id="Path" stroke="#7D84B2" stroke-width="5"></path>
                    <circle id="Oval" fill="#7D84B2" fill-rule="nonzero" cx="67.75" cy="15.135" r="14.97"></circle>
                    <polygon id="Path" fill="#FFFFFF" fill-rule="nonzero" points="76 9.90299936 64.9534492 21.9910657 64.9444756 22 60 17.5328653 61.9113853 15.4333121 64.7560292 18.0019145 73.8956814 8"></polygon>
                    <path d="M134.23,99 C133.661617,99.8030316 132.937188,100.483246 132.1,101 L75.765,135.94 C70.9858691,138.905057 64.9391309,138.905057 60.16,135.94 L3.82,100.97 C2.98281154,100.453246 2.25838282,99.7730316 1.69,98.97 C0.507485102,97.3027583 0.0656486155,95.2213247 0.46888091,93.2174685 C0.872113205,91.2136122 2.08464579,89.4650842 3.82,88.385 L60.16,53.415 C64.9377835,50.4452197 70.9872165,50.4452197 75.765,53.415 L132.1,88.4 C133.839791,89.4800142 135.055493,91.2314287 135.458912,93.2390535 C135.862331,95.2466782 135.417547,97.3317565 134.23,99 L134.23,99 Z" id="Path" stroke="#7D84B2" stroke-width="5" fill="#FFFFFF" fill-rule="nonzero"></path>
                    <polygon id="Path" stroke="#7D84B2" stroke-width="2.5" fill="#FFFFFF" fill-rule="nonzero" stroke-linecap="round" stroke-linejoin="round" points="36.555 88.1 36.555 110.62 14.025 96.695 14.025 74.175 32.24 85.435"></polygon>
                    <polygon id="Path" stroke="#7D84B2" stroke-width="2.5" fill="#FFFFFF" fill-rule="nonzero" stroke-linecap="round" stroke-linejoin="round" points="67.75 67.42 67.75 89.94 45.22 76.015 45.22 53.495 63.44 64.755"></polygon>
                    <polygon id="Path" stroke="#7D84B2" stroke-width="2.5" fill="#FFFFFF" fill-rule="nonzero" stroke-linecap="round" stroke-linejoin="round" points="90.28 53.495 72.06 64.755 67.75 67.42 63.44 64.755 45.22 53.495 67.75 39.57"></polygon>
                    <polygon id="Path" stroke="#7D84B2" stroke-width="2.5" fill="#FFFFFF" fill-rule="nonzero" stroke-linecap="round" stroke-linejoin="round" points="90.28 53.495 90.28 76.015 67.75 89.94 67.75 67.42 72.06 64.755"></polygon>
                    <polygon id="Path" stroke="#7D84B2" stroke-width="2.5" fill="#FFFFFF" fill-rule="nonzero" stroke-linecap="round" stroke-linejoin="round" points="59.08 74.175 59.08 96.695 36.555 110.62 36.555 88.1 40.865 85.435"></polygon>
                    <polygon id="Path" stroke="#7D84B2" stroke-width="2.5" fill="#FFFFFF" fill-rule="nonzero" stroke-linecap="round" stroke-linejoin="round" points="59.08 74.175 40.865 85.435 36.555 88.1 32.24 85.435 14.025 74.175 36.555 60.25"></polygon>
                    <polygon id="Path" stroke="#7D84B2" stroke-width="2.5" fill="#FFFFFF" fill-rule="nonzero" stroke-linecap="round" stroke-linejoin="round" points="99.645 88.1 99.645 110.62 77.115 96.695 77.115 74.175 95.335 85.435"></polygon>
                    <polygon id="Path" stroke="#7D84B2" stroke-width="2.5" fill="#FFFFFF" fill-rule="nonzero" stroke-linecap="round" stroke-linejoin="round" points="122.175 74.175 122.175 96.695 99.645 110.62 99.645 88.1 103.955 85.435"></polygon>
                    <polygon id="Path" stroke="#7D84B2" stroke-width="2.5" fill="#FFFFFF" fill-rule="nonzero" stroke-linecap="round" stroke-linejoin="round" points="122.175 74.175 103.955 85.435 99.645 88.1 95.335 85.435 77.115 74.175 99.645 60.25"></polygon>
                    <polygon id="Path" stroke="#7D84B2" stroke-width="2.5" fill="#FFFFFF" fill-rule="nonzero" stroke-linecap="round" stroke-linejoin="round" points="67.75 106.95 67.75 129.465 45.22 115.54 45.22 93.025 63.44 104.28"></polygon>
                    <polygon id="Path" stroke="#7D84B2" stroke-width="2.5" fill="#FFFFFF" fill-rule="nonzero" stroke-linecap="round" stroke-linejoin="round" points="90.28 93.025 90.28 115.54 67.75 129.465 67.75 106.95 72.06 104.28"></polygon>
                    <polygon id="Path" stroke="#7D84B2" stroke-width="2.5" fill="#FFFFFF" fill-rule="nonzero" stroke-linecap="round" stroke-linejoin="round" points="90.28 93.025 72.06 104.28 67.75 106.95 63.44 104.28 45.22 93.025 67.75 79.1"></polygon>
                </g>
            </g>
        </g>
    </g>
</svg>