<?xml version="1.0" encoding="UTF-8"?>
<svg width="142px" height="152px" viewBox="0 0 142 152" version="1.1" xmlns="http://www.w3.org/2000/svg" xmlns:xlink="http://www.w3.org/1999/xlink">
    <!-- Generator: sketchtool 61.1 (101010) - https://sketch.com -->
    <title>18944198-53E8-42AC-996B-5D0C4C101F8C</title>
    <desc>Created with sketchtool.</desc>
    <g id="Page-1" stroke="none" stroke-width="1" fill="none" fill-rule="evenodd">
        <g id="01F" transform="translate(-238.000000, -1243.000000)">
            <g id="Group-8" transform="translate(167.000000, 1243.000000)">
                <g id="03" transform="translate(74.000000, 0.000000)">
                    <path d="M132.245,111.5 L75.91,146.5 C71.1322165,149.46978 65.0827835,149.46978 60.305,146.5 L3.965,111.5 C2.22995241,110.42089 1.0174882,108.673239 0.614225738,106.67018 C0.21096328,104.66712 0.652695546,102.586441 1.835,100.92 C2.40338282,101.723032 3.12781154,102.403246 3.965,102.92 L60.305,137.89 C65.0841309,140.855057 71.1308691,140.855057 75.91,137.89 L132.245,102.92 C133.082188,102.403246 133.806617,101.723032 134.375,100.92 C135.557304,102.586441 135.999037,104.66712 135.595774,106.67018 C135.192512,108.673239 133.980048,110.42089 132.245,111.5 Z" id="Path" stroke="#7D84B2" stroke-width="5" fill="#7D84B2" fill-rule="nonzero"></path>
                    <path d="M1.835,100.93 C2.40338282,101.733032 3.12781154,102.413246 3.965,102.93 L60.305,137.9 C65.0841309,140.865057 71.1308691,140.865057 75.91,137.9 L132.245,102.93 C133.082188,102.413246 133.806617,101.733032 134.375,100.93" id="Path" stroke="#7D84B2" stroke-width="5"></path>
                    <path d="M134.375,100.93 C133.806617,101.733032 133.082188,102.413246 132.245,102.93 L75.91,137.885 C71.1308691,140.850057 65.0841309,140.850057 60.305,137.885 L3.965,102.915 C3.12781154,102.398246 2.40338282,101.718032 1.835,100.915 C0.652485102,99.2477583 0.210648616,97.1663247 0.61388091,95.1624685 C1.0171132,93.1586122 2.22964579,91.4100842 3.965,90.33 L60.305,55.36 C65.0827835,52.3902197 71.1322165,52.3902197 75.91,55.36 L132.245,90.33 C133.984791,91.4100142 135.200493,93.1614287 135.603912,95.1690535 C136.007331,97.1766782 135.562547,99.2617565 134.375,100.93 Z" id="Path" stroke="#7D84B2" stroke-width="5" fill="#FFFFFF" fill-rule="nonzero"></path>
                    <path d="M50.265,44.47 L36.905,36.08 C35.4721147,35.1830862 33.6528853,35.1830862 32.22,36.08 L18.865,44.47 C17.8944218,45.0764298 17.2705748,46.1087481 17.185,47.25 L17.185,52.03 C17.2203755,52.5973866 17.3918777,53.1479084 17.685,53.635 C17.3736217,54.1523283 17.2013746,54.7414133 17.185,55.345 L17.185,55.345 L17.185,59.565 C17.1777003,59.703237 17.1777003,59.841763 17.185,59.98 C17.2163831,60.5528164 17.3880871,61.1091372 17.685,61.6 C17.2918441,62.2425624 17.1164918,62.9948236 17.185,63.745 L18.1,63.745 L18.1,65.865 C18.3220461,66.1177031 18.5797578,66.3366738 18.865,66.515 L32.22,74.91 C32.9238034,75.3478436 33.7361175,75.5799333 34.565,75.58 C34.685,75.58 34.81,75.58 34.93,75.58 C35.6314687,75.5238707 36.3090074,75.2991679 36.905,74.925 L42.405,71.48 L45.98,69.235 L46.52,68.895 L47.065,68.555 L50.285,66.53 C50.5706527,66.35417 50.8299046,66.1386879 51.055,65.89 L51.055,89.075 C51.0277925,89.9789957 50.5514168,90.8098399 49.785,91.29 L36.445,99.68 C35.307643,100.393519 33.862357,100.393519 32.725,99.68 L19.36,91.275 C18.6241926,90.8208571 18.154452,90.0379561 18.1,89.175 L18.1,65.865 C17.7296029,65.4643494 17.4604433,64.9808908 17.315,64.455 C17.2503551,64.2365712 17.2084658,64.0120443 17.19,63.785 L17.19,63.745 L17.19,63.745 L17.19,88.8 C17.1827281,88.9382378 17.1827281,89.0767622 17.19,89.215 C17.2561986,90.3780974 17.8849643,91.4359909 18.875,92.05 L32.22,100.44 C32.9218657,100.883348 33.7348362,101.119092 34.565,101.12 C35.3948162,101.116667 36.2071308,100.881113 36.91,100.44 L50.25,92.05 C51.2806112,91.4076921 51.917939,90.2890785 51.945,89.075 L51.945,63.68 C51.9908265,62.9506164 51.8166429,62.224271 51.445,61.595 L51.445,61.595 C51.7585985,61.0640321 51.9307515,60.4614965 51.945,59.845 L51.945,55.345 C51.9223458,54.7424164 51.7505475,54.1548663 51.445,53.635 C51.7590023,53.1005605 51.9311212,52.4947019 51.945,51.875 L51.945,47.79 C52.0435168,46.4575147 51.3969757,45.1798264 50.265,44.47 L50.265,44.47 Z M18.1,49.94 C18.3220461,50.1927031 18.5797578,50.4116738 18.865,50.59 L32.22,59 C33.6539111,59.8933344 35.4710889,59.8933344 36.905,59 L50.265,50.61 C50.5498499,50.4291102 50.8088733,50.2104541 51.035,49.96 L51.035,51.895 C51.0242243,52.4341216 50.8498524,52.9572373 50.535,53.395 C50.3260939,53.6846092 50.0628779,53.9308434 49.76,54.12 L36.93,62.19 L36.43,62.51 L36.395,62.51 C36.2024657,62.6292551 35.9980283,62.7281223 35.785,62.805 C34.7674624,63.1891417 33.6285189,63.0724694 32.71,62.49 L19.36,54.095 C19.0561451,53.9068418 18.7940849,53.6583951 18.59,53.365 C18.2999879,52.9670468 18.1268227,52.4960375 18.09,52.005 L18.1,49.94 Z M18.295,54.44 C18.4715002,54.6105227 18.6659701,54.7614045 18.875,54.89 L32.22,63.28 C33.5844408,64.1423754 35.3115377,64.1884313 36.72,63.4 C36.7921054,63.3638026 36.8622071,63.3237444 36.93,63.28 L37.27,63.065 L37.81,62.725 L50.27,54.89 C50.4767181,54.7580953 50.6708688,54.6074611 50.85,54.44 C50.971044,54.7342422 51.0403952,55.0471685 51.055,55.365 L51.055,55.365 C51.0625106,55.464859 51.0625106,55.565141 51.055,55.665 C51.0000777,56.5251956 50.532513,57.305712 49.8,57.76 L39.85,64 L39.31,64.34 L38.765,64.68 L36.42,66.155 C35.92835,66.4542267 35.3698218,66.6260816 34.795,66.655 C34.0631383,66.711623 33.3319976,66.536709 32.705,66.155 L19.35,57.765 C18.7793295,57.4110996 18.364626,56.853395 18.19,56.205 C18.1407923,56.0423681 18.110591,55.8745829 18.1,55.705 C18.090019,55.57853 18.090019,55.45147 18.1,55.325 C18.109572,55.0140031 18.175648,54.7073427 18.295,54.42 L18.295,54.44 Z M51.035,57.94 L51.035,59.87 C51.008557,60.7755383 50.5321988,61.6082274 49.765,62.09 L43.265,66.19 L42.725,66.53 L42.18,66.87 L38.61,69.12 L36.445,70.48 C35.307643,71.1935188 33.862357,71.1935188 32.725,70.48 L19.36,62.045 C18.6240362,61.5886442 18.1545186,60.8042517 18.1,59.94 L18.1,57.885 C18.3220461,58.1377031 18.5797578,58.3566738 18.865,58.535 L32.22,66.93 C32.9228087,67.3700821 33.7357794,67.6023594 34.565,67.6 C35.0247912,67.6002634 35.4818582,67.5294265 35.92,67.39 C36.2716434,67.2800882 36.6077232,67.1254915 36.92,66.93 L39.635,65.225 L40.18,64.885 L40.72,64.545 L50.28,58.545 C50.5608496,58.3647393 50.8149973,58.1459367 51.035,57.895 L51.035,57.94 Z M51.035,63.695 C50.9800777,64.5551956 50.512513,65.335712 49.78,65.79 L46.19,68 L45.65,68.34 L45.105,68.685 L41.53,70.93 L36.42,74.14 C35.2821473,74.8454885 33.8428527,74.8454885 32.705,74.14 L23.345,68.255 L22.845,67.93 L19.345,65.745 L19.305,65.715 C19.2888039,65.7095305 19.2747856,65.6990168 19.265,65.685 L19.265,65.685 L19.265,65.685 C18.6057655,65.2369019 18.1848063,64.5144697 18.12,63.72 C18.0752287,63.2660064 18.1475277,62.808113 18.33,62.39 C18.5027941,62.5555986 18.6921182,62.7030368 18.895,62.83 L32.24,71.225 C33.6726957,72.1288366 35.4973043,72.1288366 36.93,71.225 L39.465,69.63 L43.035,67.385 L43.58,67.045 L44.12,66.705 L50.27,62.835 C50.471671,62.708201 50.6608525,62.5625479 50.835,62.4 C51.0005284,62.7947175 51.0691081,63.2233406 51.035,63.65 L51.035,63.695 Z M51.035,47.77 C50.9776914,48.6281333 50.5105272,49.40612 49.78,49.86 L36.42,58.255 C35.2838468,58.9664296 33.8411532,58.9664296 32.705,58.255 L19.35,49.815 C18.6455135,49.3784653 18.1836832,48.6395368 18.1,47.815 L18.1,47.815 C18.0840603,47.6487144 18.0840603,47.4812856 18.1,47.315 C18.168556,46.4736007 18.6324351,45.7146946 19.35,45.27 L32.71,36.85 C33.8449478,36.1406557 35.2850522,36.1406557 36.42,36.85 L49.78,45.245 C50.5324448,45.7065209 51.0050689,46.5129827 51.04,47.395 C51.0458293,47.5049859 51.0441588,47.6152412 51.035,47.725 L51.035,47.77 Z" id="Shape" stroke="#7D84B2" stroke-width="2.5" fill="#FFFFFF" fill-rule="nonzero" stroke-linecap="round" stroke-linejoin="round"></path>
                    <path d="M51.035,65.875 L51.035,89.06 C51.0077925,89.9639957 50.5314168,90.7948399 49.765,91.275 L36.425,99.665 C35.287643,100.378519 33.842357,100.378519 32.705,99.665 L19.36,91.275 C18.6241926,90.8208571 18.154452,90.0379561 18.1,89.175 L18.1,65.865 C18.3220461,66.1177031 18.5797578,66.3366738 18.865,66.515 L32.22,74.91 C32.9238034,75.3478436 33.7361175,75.5799333 34.565,75.58 C34.685,75.58 34.81,75.58 34.93,75.58 C35.6314687,75.5238707 36.3090074,75.2991679 36.905,74.925 L42.405,71.48 L45.98,69.235 L46.52,68.895 L47.065,68.555 L50.285,66.53 C50.5645714,66.3480401 50.8170616,66.127532 51.035,65.875 L51.035,65.875 Z" id="Path" stroke="#7D84B2" stroke-width="2.5" fill="#FFFFFF" fill-rule="nonzero" stroke-linecap="round" stroke-linejoin="round"></path>
                    <path d="M51.04,47.395 C51.0474932,47.5048724 51.0474932,47.6151276 51.04,47.725 C50.9826914,48.5831333 50.5155272,49.36112 49.785,49.815 L36.425,58.21 C35.2888468,58.9214296 33.8461532,58.9214296 32.71,58.21 L19.35,49.815 C18.6455135,49.3784653 18.1836832,48.6395368 18.1,47.815 L18.1,47.815 C18.0840603,47.6487144 18.0840603,47.4812856 18.1,47.315 C18.168556,46.4736007 18.6324351,45.7146946 19.35,45.27 L32.71,36.85 C33.8449478,36.1406557 35.2850522,36.1406557 36.42,36.85 L49.78,45.245 C50.5324448,45.7065209 51.0050689,46.5129827 51.04,47.395 Z" id="Path" stroke="#7D84B2" stroke-width="2.5" fill="#FFFFFF" fill-rule="nonzero" stroke-linecap="round" stroke-linejoin="round"></path>
                    <path d="M51.035,63.65 C50.9800777,64.5101956 50.512513,65.290712 49.78,65.745 L46.19,68 L45.65,68.34 L45.105,68.685 L41.53,70.93 L36.42,74.14 C35.2821473,74.8454885 33.8428527,74.8454885 32.705,74.14 L23.345,68.255 L22.845,67.93 L19.345,65.745 L19.305,65.715 C19.2888039,65.7095305 19.2747856,65.6990168 19.265,65.685 L19.265,65.685 L19.265,65.685 C18.6057655,65.2369019 18.1848063,64.5144697 18.12,63.72 C18.0752287,63.2660064 18.1475277,62.808113 18.33,62.39 C18.5027941,62.5555986 18.6921182,62.7030368 18.895,62.83 L32.24,71.225 C33.6726957,72.1288366 35.4973043,72.1288366 36.93,71.225 L39.465,69.63 L43.035,67.385 L43.58,67.045 L44.12,66.705 L50.27,62.835 C50.471671,62.708201 50.6608525,62.5625479 50.835,62.4 C51.0005284,62.7947175 51.0691081,63.2233406 51.035,63.65 Z" id="Path" fill="#FFFFFF" fill-rule="nonzero"></path>
                    <path d="M51.035,57.895 L51.035,59.825 C51.008557,60.7305383 50.5321988,61.5632274 49.765,62.045 L43.265,66.145 L42.725,66.485 L42.18,66.825 L38.61,69.075 L36.445,70.435 C35.307643,71.1485188 33.862357,71.1485188 32.725,70.435 L19.36,62.045 C18.6240362,61.5886442 18.1545186,60.8042517 18.1,59.94 L18.1,57.885 C18.3220461,58.1377031 18.5797578,58.3566738 18.865,58.535 L32.22,66.93 C32.9228087,67.3700821 33.7357794,67.6023594 34.565,67.6 C35.0247912,67.6002634 35.4818582,67.5294265 35.92,67.39 C36.2716434,67.2800882 36.6077232,67.1254915 36.92,66.93 L39.635,65.225 L40.18,64.885 L40.72,64.545 L50.28,58.545 C50.5608496,58.3647393 50.8149973,58.1459367 51.035,57.895 L51.035,57.895 Z" id="Path" fill="#FFFFFF" fill-rule="nonzero"></path>
                    <path d="M51.035,55.345 L51.035,55.345 C51.0425106,55.444859 51.0425106,55.545141 51.035,55.645 C50.9800777,56.5051956 50.512513,57.285712 49.78,57.74 L39.85,64 L39.31,64.34 L38.765,64.68 L36.42,66.155 C35.92835,66.4542267 35.3698218,66.6260816 34.795,66.655 C34.0631383,66.711623 33.3319976,66.536709 32.705,66.155 L19.35,57.765 C18.7793295,57.4110996 18.364626,56.853395 18.19,56.205 C18.1407923,56.0423681 18.110591,55.8745829 18.1,55.705 C18.090019,55.57853 18.090019,55.45147 18.1,55.325 C18.1103013,55.006612 18.1798203,54.6929285 18.305,54.4 C18.4815002,54.5705227 18.6759701,54.7214045 18.885,54.85 L32.23,63.24 C33.5944408,64.1023754 35.3215377,64.1484313 36.73,63.36 C36.8021054,63.3238026 36.8722071,63.2837444 36.94,63.24 L37.28,63.025 L37.82,62.685 L50.28,54.85 C50.4867181,54.7180953 50.6808688,54.5674611 50.86,54.4 C50.9730501,54.7023693 51.032278,55.0221996 51.035,55.345 Z" id="Path" fill="#FFFFFF" fill-rule="nonzero"></path>
                    <path d="M51.035,49.94 L51.035,51.875 C51.0242243,52.4141216 50.8498524,52.9372373 50.535,53.375 C50.3260939,53.6646092 50.0628779,53.9108434 49.76,54.1 L36.93,62.17 L36.43,62.49 L36.395,62.49 C36.2024657,62.6092551 35.9980283,62.7081223 35.785,62.785 C34.7674624,63.1691417 33.6285189,63.0524694 32.71,62.47 L19.36,54.095 C19.0561451,53.9068418 18.7940849,53.6583951 18.59,53.365 C18.2999879,52.9670468 18.1268227,52.4960375 18.09,52.005 L18.09,49.94 C18.3120461,50.1927031 18.5697578,50.4116738 18.855,50.59 L32.22,59 C33.6539111,59.8933344 35.4710889,59.8933344 36.905,59 L50.265,50.61 C50.551117,50.4229546 50.8102022,50.1975167 51.035,49.94 Z" id="Path" fill="#FFFFFF" fill-rule="nonzero"></path>
                    <path d="M119.6,44.47 L106.24,36.08 C104.807115,35.1830862 102.987885,35.1830862 101.555,36.08 L88.2,44.47 C87.22178,45.0718959 86.5900419,46.1049736 86.5,47.25 L86.5,52.03 C86.5353755,52.5973866 86.7068777,53.1479084 87,53.635 C86.6886217,54.1523283 86.5163746,54.7414133 86.5,55.345 L86.5,55.345 L86.5,59.565 C86.4927003,59.703237 86.4927003,59.841763 86.5,59.98 C86.5313831,60.5528164 86.7030871,61.1091372 87,61.6 C86.6068441,62.2425624 86.4314918,62.9948236 86.5,63.745 L87.41,63.745 L87.41,65.865 C87.6320461,66.1177031 87.8897578,66.3366738 88.175,66.515 L101.53,74.91 C102.233803,75.3478436 103.046117,75.5799333 103.875,75.58 C103.995,75.58 104.12,75.58 104.24,75.58 C104.95007,75.5278518 105.636646,75.3029984 106.24,74.925 L111.74,71.48 L115.315,69.235 L115.855,68.895 L116.4,68.555 L119.6,66.5 C119.885653,66.32417 120.144905,66.1086879 120.37,65.86 L120.37,89.045 C120.342792,89.9489957 119.866417,90.7798399 119.1,91.26 L105.76,99.65 C104.622643,100.363519 103.177357,100.363519 102.04,99.65 L88.695,91.255 C87.9591926,90.8008571 87.489452,90.0179561 87.435,89.155 L87.435,65.865 C87.0646029,65.4643494 86.7954433,64.9808908 86.65,64.455 C86.5853551,64.2365712 86.5434658,64.0120443 86.525,63.785 L86.525,63.745 L86.525,63.745 L86.525,88.8 C86.5177281,88.9382378 86.5177281,89.0767622 86.525,89.215 C86.5911986,90.3780974 87.2199643,91.4359909 88.21,92.05 L101.555,100.44 C102.256866,100.883348 103.069836,101.119092 103.9,101.12 C104.729816,101.116667 105.542131,100.881113 106.245,100.44 L119.585,92.05 C120.615611,91.4076921 121.252939,90.2890785 121.28,89.075 L121.28,63.68 C121.325826,62.9506164 121.151643,62.224271 120.78,61.595 L120.78,61.595 C121.093599,61.0640321 121.265752,60.4614965 121.28,59.845 L121.28,55.345 C121.257346,54.7424164 121.085547,54.1548663 120.78,53.635 C121.094002,53.1005605 121.266121,52.4947019 121.28,51.875 L121.28,47.79 C121.378517,46.4575147 120.731976,45.1798264 119.6,44.47 L119.6,44.47 Z M87.435,49.94 C87.6570461,50.1927031 87.9147578,50.4116738 88.2,50.59 L101.555,59 C102.988911,59.8933344 104.806089,59.8933344 106.24,59 L119.6,50.61 C119.88485,50.4291102 120.143873,50.2104541 120.37,49.96 L120.37,51.895 C120.359224,52.4341216 120.184852,52.9572373 119.87,53.395 C119.661094,53.6846092 119.397878,53.9308434 119.095,54.12 L106.265,62.19 L105.765,62.51 L105.73,62.51 C105.537466,62.6292551 105.333028,62.7281223 105.12,62.805 C104.102462,63.1891417 102.963519,63.0724694 102.045,62.49 L88.7,54.1 C88.3961451,53.9118418 88.1340849,53.6633951 87.93,53.37 C87.6399879,52.9720468 87.4668227,52.5010375 87.43,52.01 L87.435,49.94 Z M87.63,54.44 C87.8065002,54.6105227 88.0009701,54.7614045 88.21,54.89 L101.555,63.28 C102.919441,64.1423754 104.646538,64.1884313 106.055,63.4 C106.127105,63.3638026 106.197207,63.3237444 106.265,63.28 L106.605,63.065 L107.145,62.725 L119.605,54.89 C119.811718,54.7580953 120.005869,54.6074611 120.185,54.44 C120.306044,54.7342422 120.375395,55.0471685 120.39,55.365 L120.39,55.365 C120.397511,55.464859 120.397511,55.565141 120.39,55.665 C120.335078,56.5251956 119.867513,57.305712 119.135,57.76 L109.185,64 L108.645,64.34 L108.1,64.68 L105.755,66.155 C105.26335,66.4542267 104.704822,66.6260816 104.13,66.655 C103.398138,66.711623 102.666998,66.536709 102.04,66.155 L88.685,57.76 C88.1143295,57.4060996 87.699626,56.848395 87.525,56.2 C87.4757923,56.0373681 87.445591,55.8695829 87.435,55.7 C87.425019,55.57353 87.425019,55.44647 87.435,55.32 C87.445174,55.0106929 87.5112385,54.7057798 87.63,54.42 L87.63,54.44 Z M120.37,57.94 L120.37,59.87 C120.343557,60.7755383 119.867199,61.6082274 119.1,62.09 L112.6,66.19 L112.06,66.53 L111.515,66.87 L107.945,69.12 L105.78,70.48 C104.642643,71.1935188 103.197357,71.1935188 102.06,70.48 L88.715,62.09 C87.9790362,61.6336442 87.5095186,60.8492517 87.455,59.985 L87.455,57.93 C87.6770461,58.1827031 87.9347578,58.4016738 88.22,58.58 L101.575,66.975 C102.277809,67.4150821 103.090779,67.6473594 103.92,67.645 C104.379791,67.6452634 104.836858,67.5744265 105.275,67.435 C105.626643,67.3250882 105.962723,67.1704915 106.275,66.975 L108.99,65.27 L109.535,64.93 L110.075,64.59 L119.635,58.59 C119.911789,58.3944467 120.15928,58.1604247 120.37,57.895 L120.37,57.94 Z M120.37,63.695 C120.315078,64.5551956 119.847513,65.335712 119.115,65.79 L115.525,68 L114.985,68.34 L114.44,68.685 L110.865,70.93 L105.755,74.14 C104.617147,74.8454885 103.177853,74.8454885 102.04,74.14 L92.68,68.255 L92.18,67.93 L88.705,65.745 L88.665,65.715 C88.6488039,65.7095305 88.6347856,65.6990168 88.625,65.685 L88.625,65.685 L88.625,65.685 C87.9657655,65.2369019 87.5448063,64.5144697 87.48,63.72 C87.4352287,63.2660064 87.5075277,62.808113 87.69,62.39 C87.8627941,62.5555986 88.0521182,62.7030368 88.255,62.83 L101.6,71.225 C103.032696,72.1288366 104.857304,72.1288366 106.29,71.225 L108.825,69.63 L112.395,67.385 L112.94,67.045 L113.48,66.705 L119.63,62.835 C119.831671,62.708201 120.020853,62.5625479 120.195,62.4 C120.352019,62.796792 120.412016,63.2253431 120.37,63.65 L120.37,63.695 Z M120.37,47.77 C120.312691,48.6281333 119.845527,49.40612 119.115,49.86 L105.755,58.255 C104.618847,58.9664296 103.176153,58.9664296 102.04,58.255 L88.685,49.86 C87.9805135,49.4234653 87.5186832,48.6845368 87.435,47.86 L87.435,47.86 C87.4190603,47.6937144 87.4190603,47.5262856 87.435,47.36 C87.503556,46.5186007 87.9674351,45.7596946 88.685,45.315 L102.045,36.85 C103.179948,36.1406557 104.620052,36.1406557 105.755,36.85 L119.115,45.245 C119.867445,45.7065209 120.340069,46.5129827 120.375,47.395 C120.380829,47.5049859 120.379159,47.6152412 120.37,47.725 L120.37,47.77 Z" id="Shape" stroke="#7D84B2" stroke-width="2.5" fill="#FFFFFF" fill-rule="nonzero" stroke-linecap="round" stroke-linejoin="round"></path>
                    <path d="M120.37,65.875 L120.37,89.06 C120.342792,89.9639957 119.866417,90.7948399 119.1,91.275 L105.76,99.665 C104.622643,100.378519 103.177357,100.378519 102.04,99.665 L88.695,91.27 C87.9591926,90.8158571 87.489452,90.0329561 87.435,89.17 L87.435,65.865 C87.6570461,66.1177031 87.9147578,66.3366738 88.2,66.515 L101.555,74.91 C102.258803,75.3478436 103.071117,75.5799333 103.9,75.58 C104.02,75.58 104.145,75.58 104.265,75.58 C104.97507,75.5278518 105.661646,75.3029984 106.265,74.925 L111.765,71.48 L115.34,69.235 L115.88,68.895 L116.425,68.555 L119.6,66.5 C119.884684,66.3287749 120.143886,66.1183833 120.37,65.875 L120.37,65.875 Z" id="Path" stroke="#7D84B2" stroke-width="2.5" fill="#FFFFFF" fill-rule="nonzero" stroke-linecap="round" stroke-linejoin="round"></path>
                    <path d="M120.375,47.395 C120.382493,47.5048724 120.382493,47.6151276 120.375,47.725 C120.317691,48.5831333 119.850527,49.36112 119.12,49.815 L105.76,58.21 C104.623847,58.9214296 103.181153,58.9214296 102.045,58.21 L88.69,49.815 C87.9855135,49.3784653 87.5236832,48.6395368 87.44,47.815 L87.44,47.815 C87.4240603,47.6487144 87.4240603,47.4812856 87.44,47.315 C87.508556,46.4736007 87.9724351,45.7146946 88.69,45.27 L102.045,36.85 C103.179948,36.1406557 104.620052,36.1406557 105.755,36.85 L119.115,45.245 C119.867445,45.7065209 120.340069,46.5129827 120.375,47.395 Z" id="Path" stroke="#7D84B2" stroke-width="2.5" fill="#FFFFFF" fill-rule="nonzero" stroke-linecap="round" stroke-linejoin="round"></path>
                    <path d="M120.37,63.65 C120.315078,64.5101956 119.847513,65.290712 119.115,65.745 L115.525,68 L114.985,68.34 L114.44,68.685 L110.865,70.93 L105.755,74.14 C104.617147,74.8454885 103.177853,74.8454885 102.04,74.14 L92.68,68.255 L92.18,67.93 L88.705,65.745 L88.665,65.715 C88.6488039,65.7095305 88.6347856,65.6990168 88.625,65.685 L88.625,65.685 L88.625,65.685 C87.9657655,65.2369019 87.5448063,64.5144697 87.48,63.72 C87.4352287,63.2660064 87.5075277,62.808113 87.69,62.39 C87.8627941,62.5555986 88.0521182,62.7030368 88.255,62.83 L101.6,71.225 C103.032696,72.1288366 104.857304,72.1288366 106.29,71.225 L108.825,69.63 L112.395,67.385 L112.94,67.045 L113.48,66.705 L119.63,62.835 C119.831671,62.708201 120.020853,62.5625479 120.195,62.4 C120.352019,62.796792 120.412016,63.2253431 120.37,63.65 Z" id="Path" fill="#FFFFFF" fill-rule="nonzero"></path>
                    <path d="M120.37,57.895 L120.37,59.825 C120.343557,60.7305383 119.867199,61.5632274 119.1,62.045 L112.6,66.145 L112.06,66.485 L111.515,66.825 L107.945,69.075 L105.78,70.435 C104.642643,71.1485188 103.197357,71.1485188 102.06,70.435 L88.715,62.045 C87.9790362,61.5886442 87.5095186,60.8042517 87.455,59.94 L87.455,57.885 C87.6770461,58.1377031 87.9347578,58.3566738 88.22,58.535 L101.575,66.93 C102.277809,67.3700821 103.090779,67.6023594 103.92,67.6 C104.379791,67.6002634 104.836858,67.5294265 105.275,67.39 C105.626643,67.2800882 105.962723,67.1254915 106.275,66.93 L108.99,65.225 L109.535,64.885 L110.075,64.545 L119.635,58.545 C119.908788,58.3632454 120.15613,58.1445076 120.37,57.895 L120.37,57.895 Z" id="Path" fill="#FFFFFF" fill-rule="nonzero"></path>
                    <path d="M120.37,55.345 L120.37,55.345 C120.377511,55.444859 120.377511,55.545141 120.37,55.645 C120.315078,56.5051956 119.847513,57.285712 119.115,57.74 L109.185,64 L108.645,64.34 L108.1,64.68 L105.755,66.155 C105.26335,66.4542267 104.704822,66.6260816 104.13,66.655 C103.398138,66.711623 102.666998,66.536709 102.04,66.155 L88.685,57.76 C88.1143295,57.4060996 87.699626,56.848395 87.525,56.2 C87.4757923,56.0373681 87.445591,55.8695829 87.435,55.7 C87.425019,55.57353 87.425019,55.44647 87.435,55.32 C87.4453013,55.001612 87.5148203,54.6879285 87.64,54.395 C87.8165002,54.5655227 88.0109701,54.7164045 88.22,54.845 L101.565,63.235 C102.929441,64.0973754 104.656538,64.1434313 106.065,63.355 C106.137105,63.3188026 106.207207,63.2787444 106.275,63.235 L106.615,63.02 L107.155,62.68 L119.615,54.845 C119.821718,54.7130953 120.015869,54.5624611 120.195,54.395 C120.308625,54.6989448 120.367863,55.0205179 120.37,55.345 L120.37,55.345 Z" id="Path" fill="#FFFFFF" fill-rule="nonzero"></path>
                    <path d="M120.37,49.94 L120.37,51.875 C120.359224,52.4141216 120.184852,52.9372373 119.87,53.375 C119.661094,53.6646092 119.397878,53.9108434 119.095,54.1 L106.265,62.17 L105.765,62.49 L105.73,62.49 C105.537466,62.6092551 105.333028,62.7081223 105.12,62.785 C104.102462,63.1691417 102.963519,63.0524694 102.045,62.47 L88.7,54.08 C88.3961451,53.8918418 88.1340849,53.6433951 87.93,53.35 C87.6399879,52.9520468 87.4668227,52.4810375 87.43,51.99 L87.43,49.925 C87.6520461,50.1777031 87.9097578,50.3966738 88.195,50.575 L101.555,59 C102.988911,59.8933344 104.806089,59.8933344 106.24,59 L119.6,50.61 C119.886117,50.4229546 120.145202,50.1975167 120.37,49.94 L120.37,49.94 Z" id="Path" fill="#FFFFFF" fill-rule="nonzero"></path>
                    <g id="Group-19" transform="translate(50.920492, 47.727315)" fill="#FFFFFF" fill-rule="nonzero">
                        <path d="M33.0795076,9.06268538 L19.7345076,0.672685375 C18.3016224,-0.224228458 16.4823929,-0.224228458 15.0495076,0.672685375 L1.69450765,9.06768538 C0.723929495,9.67411513 0.100082452,10.7064335 0.0145076464,11.8476854 L0.0145076464,16.6276854 C0.049883177,17.1950719 0.221385304,17.7455938 0.514507646,18.2326854 C0.203129304,18.7500137 0.0308822533,19.3390986 0.0145076464,19.9426854 L0.0145076464,19.9426854 L0.0145076464,24.1626854 C0.00720798989,24.3009224 0.00720798989,24.4394483 0.0145076464,24.5776854 C0.0458907739,25.1505018 0.217594739,25.7068226 0.514507646,26.1976854 C0.121351705,26.8402478 -0.0540005442,27.5925089 0.0145076464,28.3426854 L0.924507646,28.3426854 L0.924507646,30.4626854 C1.14655375,30.7153885 1.40426547,30.9343592 1.68950765,31.1126854 L15.0445076,39.5076854 C15.748311,39.945529 16.5606251,40.1776187 17.3895076,40.1776854 C17.5095076,40.1776854 17.6345076,40.1776854 17.7545076,40.1776854 C18.4559763,40.121556 19.1335151,39.8968533 19.7295076,39.5226854 L25.2295076,36.0776854 L28.8045076,33.8326854 L29.3445076,33.4926854 L29.8895076,33.1526854 L33.1095076,31.1276854 C33.3951603,30.9518554 33.6544122,30.7363733 33.8795076,30.4876854 L33.8795076,53.6726854 C33.8523001,54.5766811 33.3759245,55.4075252 32.6095076,55.8876854 L19.2545076,64.2726854 C18.1171506,64.9862042 16.6718647,64.9862042 15.5345076,64.2726854 L2.18950765,55.8776854 C1.45370024,55.4235424 0.983959695,54.6406415 0.929507646,53.7776854 L0.929507646,30.4576854 C0.55911053,30.0570348 0.289950974,29.5735762 0.144507646,29.0476854 C0.0798627635,28.8292566 0.037973416,28.6047297 0.0195076464,28.3776854 L0.0195076464,28.3376854 L0.0195076464,28.3376854 L0.0195076464,53.3926854 C0.0122357485,53.5309231 0.0122357485,53.6694476 0.0195076464,53.8076854 C0.0857062735,54.9707828 0.71447191,56.0286763 1.70450765,56.6426854 L15.0495076,65.0326854 C15.7513734,65.4760333 16.5643438,65.7117774 17.3945076,65.7126854 C18.2243239,65.7093526 19.0366385,65.4737987 19.7395076,65.0326854 L33.0795076,56.6426854 C34.1174685,55.995573 34.7558457,54.8657017 34.7745076,53.6426854 L34.7745076,28.2726854 C34.8203341,27.5433018 34.6461506,26.8169564 34.2745076,26.1876854 L34.2745076,26.1876854 C34.5881062,25.6567175 34.7602592,25.0541819 34.7745076,24.4376854 L34.7745076,19.9376854 C34.7518534,19.3351018 34.5800551,18.7475516 34.2745076,18.2276854 C34.5885099,17.6932458 34.7606288,17.0873873 34.7745076,16.4676854 L34.7745076,12.3826854 C34.86991,11.0471155 34.2172232,9.76869656 33.0795076,9.06268538 L33.0795076,9.06268538 Z M0.929507646,14.5326854 C1.15155375,14.7853885 1.40926547,15.0043592 1.69450765,15.1826854 L15.0495076,23.5726854 C16.4834187,24.4660198 18.3005965,24.4660198 19.7345076,23.5726854 L33.0795076,15.1826854 C33.3643575,15.0017956 33.6233809,14.7831395 33.8495076,14.5326854 L33.8495076,16.4676854 C33.8387319,17.006807 33.66436,17.5299226 33.3495076,17.9676854 C33.1406015,18.2572945 32.8773856,18.5035288 32.5745076,18.6926854 L19.7645076,26.7726854 L19.2645076,27.0926854 L19.2295076,27.0926854 C19.0369733,27.2119404 18.832536,27.3108077 18.6195076,27.3876854 C17.6019701,27.771827 16.4630265,27.6551548 15.5445076,27.0726854 L2.19950765,18.6826854 C1.89565278,18.4945271 1.63359255,18.2460804 1.42950765,17.9526854 C1.13949552,17.5547322 0.966330328,17.0837229 0.929507646,16.5926854 L0.929507646,14.5326854 Z M1.12450765,19.0326854 C1.30100784,19.2032081 1.49547774,19.3540899 1.70450765,19.4826854 L15.0495076,27.8726854 C16.4139485,28.7350607 18.1410453,28.7811167 19.5495076,27.9926854 C19.6216131,27.9564879 19.6917148,27.9164298 19.7595076,27.8726854 L20.0995076,27.6576854 L20.6395076,27.3176854 L33.0795076,19.4626854 C33.2862257,19.3307807 33.4803765,19.1801465 33.6595076,19.0126854 C33.7805516,19.3069276 33.8499029,19.6198539 33.8645076,19.9376854 L33.8645076,19.9376854 C33.8720182,20.0375444 33.8720182,20.1378264 33.8645076,20.2376854 C33.8095854,21.097881 33.3420207,21.8783974 32.6095076,22.3326854 L22.6795076,28.5976854 L22.1395076,28.9376854 L21.5795076,29.2726854 L19.2345076,30.7726854 C18.7428576,31.0719121 18.1843294,31.2437669 17.6095076,31.2726854 C16.8776459,31.3293084 16.1465053,31.1543944 15.5195076,30.7726854 L2.17950765,22.3576854 C1.60883711,22.003785 1.19413366,21.4460804 1.01950765,20.7976854 C0.970299971,20.6350534 0.940098652,20.4672683 0.929507646,20.2976854 C0.919526684,20.1712153 0.919526684,20.0441554 0.929507646,19.9176854 C0.939079687,19.6066885 1.00515569,19.300028 1.12450765,19.0126854 L1.12450765,19.0326854 Z M33.8645076,22.5326854 L33.8645076,24.4626854 C33.8380646,25.3682237 33.3617065,26.2009128 32.5945076,26.6826854 L26.0945076,30.7826854 L25.5545076,31.1226854 L25.0095076,31.4626854 L21.4395076,33.7126854 L19.2745076,35.0726854 C18.1371506,35.7862042 16.6918647,35.7862042 15.5545076,35.0726854 L2.20950765,26.6826854 C1.47354383,26.2263296 1.00402623,25.4419371 0.949507646,24.5776854 L0.949507646,22.5226854 C1.17155375,22.7753885 1.42926547,22.9943592 1.71450765,23.1726854 L15.0695076,31.5676854 C15.7723164,32.0077674 16.5852871,32.2400448 17.4145076,32.2376854 C17.8742988,32.2379488 18.3313658,32.1671119 18.7695076,32.0276854 C19.1211511,31.9177736 19.4572309,31.7631769 19.7695076,31.5676854 L22.4845076,29.8626854 L23.0295076,29.5226854 L23.5695076,29.1826854 L33.1295076,23.1826854 C33.4062967,22.987132 33.6537875,22.7531101 33.8645076,22.4876854 L33.8645076,22.5326854 Z M33.8645076,28.2876854 C33.8095854,29.147881 33.3420207,29.9283974 32.6095076,30.3826854 L29.0195076,32.6376854 L28.4795076,32.9776854 L27.9345076,33.3226854 L24.3595076,35.5676854 L19.2495076,38.7776854 C18.1116549,39.4831739 16.6723604,39.4831739 15.5345076,38.7776854 L6.17450765,32.8926854 L5.67450765,32.5676854 L2.17450765,30.3826854 L2.13450765,30.3526854 C2.10023994,30.3414615 2.07771634,30.3086999 2.07950765,30.2726854 L2.07950765,30.2726854 L2.07950765,30.2726854 C1.42027318,29.8245873 0.999313949,29.1021551 0.934507646,28.3076854 C0.889736357,27.8536918 0.962035313,27.3957984 1.14450765,26.9776854 C1.31730178,27.1432839 1.50662583,27.2907221 1.70950765,27.4176854 L15.0545076,35.8126854 C16.4872034,36.716522 18.3118119,36.716522 19.7445076,35.8126854 L22.2795076,34.2176854 L25.8495076,31.9726854 L26.3945076,31.6326854 L26.9345076,31.2926854 L33.0845076,27.4226854 C33.2861786,27.2958864 33.4753602,27.1502333 33.6495076,26.9876854 C33.8209529,27.3826725 33.8947009,27.8131546 33.8645076,28.2426854 L33.8645076,28.2876854 Z M33.8645076,12.3626854 C33.8071991,13.2208187 33.3400348,13.9988053 32.6095076,14.4526854 L19.2495076,22.8476854 C18.1133544,23.559115 16.6706609,23.559115 15.5345076,22.8476854 L2.17950765,14.4076854 C1.47502116,13.9711507 1.01319081,13.2322221 0.929507646,12.4076854 L0.929507646,12.3826854 C0.913567973,12.2163998 0.913567973,12.0489709 0.929507646,11.8826854 C0.998063682,11.0412861 1.46194273,10.28238 2.17950765,9.83768538 L15.5395076,1.44268538 C16.6744554,0.733341036 18.1145599,0.733341036 19.2495076,1.44268538 L32.6095076,9.83768538 C33.3619524,10.2992062 33.8345766,11.1056681 33.8695076,11.9876854 C33.875337,12.0976713 33.8736665,12.2079266 33.8645076,12.3176854 L33.8645076,12.3626854 Z" id="Shape" stroke="#7D84B2" stroke-width="2.5" stroke-linecap="round" stroke-linejoin="round"></path>
                        <path d="M33.8645076,30.4676854 L33.8645076,53.6526854 C33.8373001,54.5566811 33.3609245,55.3875252 32.5945076,55.8676854 L19.2545076,64.2726854 C18.1171506,64.9862042 16.6718647,64.9862042 15.5345076,64.2726854 L2.18950765,55.8776854 C1.45370024,55.4235424 0.983959695,54.6406415 0.929507646,53.7776854 L0.929507646,30.4576854 C1.15155375,30.7103885 1.40926547,30.9293592 1.69450765,31.1076854 L15.0495076,39.5026854 C15.753311,39.940529 16.5656251,40.1726187 17.3945076,40.1726854 C17.5145076,40.1726854 17.6395076,40.1726854 17.7595076,40.1726854 C18.4609763,40.116556 19.1385151,39.8918533 19.7345076,39.5176854 L25.2345076,36.0726854 L28.8095076,33.8276854 L29.3495076,33.4876854 L29.8945076,33.1476854 L33.1145076,31.1226854 C33.394079,30.9407255 33.6465692,30.7202174 33.8645076,30.4676854 L33.8645076,30.4676854 Z" id="Path" stroke="#7D84B2" stroke-width="2.5" stroke-linecap="round" stroke-linejoin="round"></path>
                        <path d="M33.8695076,11.9876854 C33.8770009,12.0975578 33.8770009,12.207813 33.8695076,12.3176854 C33.8121991,13.1758187 33.3450348,13.9538053 32.6145076,14.4076854 L19.2545076,22.8026854 C18.1183544,23.514115 16.6756609,23.514115 15.5395076,22.8026854 L2.17950765,14.4076854 C1.47502116,13.9711507 1.01319081,13.2322221 0.929507646,12.4076854 L0.929507646,12.3826854 C0.913567973,12.2163998 0.913567973,12.0489709 0.929507646,11.8826854 C0.998063682,11.0412861 1.46194273,10.28238 2.17950765,9.83768538 L15.5395076,1.44268538 C16.6744554,0.733341036 18.1145599,0.733341036 19.2495076,1.44268538 L32.6095076,9.83768538 C33.3619524,10.2992062 33.8345766,11.1056681 33.8695076,11.9876854 L33.8695076,11.9876854 Z" id="Path" stroke="#7D84B2" stroke-width="2.5" stroke-linecap="round" stroke-linejoin="round"></path>
                        <path d="M33.8645076,28.2426854 C33.8095854,29.102881 33.3420207,29.8833974 32.6095076,30.3376854 L29.0195076,32.5926854 L28.4795076,32.9326854 L27.9345076,33.2776854 L24.3595076,35.5226854 L19.2495076,38.7326854 C18.1116549,39.4381739 16.6723604,39.4381739 15.5345076,38.7326854 L6.17450765,32.8476854 L5.67450765,32.5226854 L2.17450765,30.3376854 L2.13450765,30.3076854 C2.11203662,30.3043565 2.09204031,30.2916316 2.07950765,30.2726854 L2.07950765,30.2726854 L2.07950765,30.2726854 C1.42027318,29.8245873 0.999313949,29.1021551 0.934507646,28.3076854 C0.889736357,27.8536918 0.962035313,27.3957984 1.14450765,26.9776854 C1.31730178,27.1432839 1.50662583,27.2907221 1.70950765,27.4176854 L15.0545076,35.8126854 C16.4872034,36.716522 18.3118119,36.716522 19.7445076,35.8126854 L22.2795076,34.2176854 L25.8495076,31.9726854 L26.3945076,31.6326854 L26.9345076,31.2926854 L33.0845076,27.4226854 C33.2861786,27.2958864 33.4753602,27.1502333 33.6495076,26.9876854 C33.8209529,27.3826725 33.8947009,27.8131546 33.8645076,28.2426854 Z" id="Path"></path>
                        <path d="M33.8645076,22.4876854 L33.8645076,24.4176854 C33.8380646,25.3232237 33.3617065,26.1559128 32.5945076,26.6376854 L26.0945076,30.7376854 L25.5545076,31.0776854 L25.0095076,31.4176854 L21.4395076,33.6676854 L19.2745076,35.0276854 C18.1371506,35.7412042 16.6918647,35.7412042 15.5545076,35.0276854 L2.20950765,26.6376854 C1.47354383,26.1813296 1.00402623,25.3969371 0.949507646,24.5326854 L0.949507646,22.4776854 C1.17155375,22.7303885 1.42926547,22.9493592 1.71450765,23.1276854 L15.0695076,31.5226854 C15.7723164,31.9627674 16.5852871,32.1950448 17.4145076,32.1926854 C17.8742988,32.1929488 18.3313658,32.1221119 18.7695076,31.9826854 C19.1211511,31.8727736 19.4572309,31.7181769 19.7695076,31.5226854 L22.4845076,29.8176854 L23.0295076,29.4776854 L23.5695076,29.1376854 L33.1295076,23.1376854 C33.4032954,22.9559308 33.6506375,22.7371929 33.8645076,22.4876854 L33.8645076,22.4876854 Z" id="Path"></path>
                        <path d="M33.8645076,19.9376854 L33.8645076,19.9376854 C33.8720182,20.0375444 33.8720182,20.1378264 33.8645076,20.2376854 C33.8095854,21.097881 33.3420207,21.8783974 32.6095076,22.3326854 L22.6795076,28.5976854 L22.1395076,28.9376854 L21.5795076,29.2726854 L19.2345076,30.7726854 C18.7428576,31.0719121 18.1843294,31.2437669 17.6095076,31.2726854 C16.8776459,31.3293084 16.1465053,31.1543944 15.5195076,30.7726854 L2.17950765,22.3576854 C1.60883711,22.003785 1.19413366,21.4460804 1.01950765,20.7976854 C0.970299971,20.6350534 0.940098652,20.4672683 0.929507646,20.2976854 C0.919526684,20.1712153 0.919526684,20.0441554 0.929507646,19.9176854 C0.939808938,19.5992974 1.00932798,19.2856139 1.13450765,18.9926854 C1.31100784,19.1632081 1.50547774,19.3140899 1.71450765,19.4426854 L15.0595076,27.8326854 C16.4239485,28.6950607 18.1510453,28.7411167 19.5595076,27.9526854 C19.6316131,27.9164879 19.7017148,27.8764298 19.7695076,27.8326854 L20.1095076,27.6176854 L20.6495076,27.2776854 L33.0795076,19.4626854 C33.2862257,19.3307807 33.4803765,19.1801465 33.6595076,19.0126854 C33.7805516,19.3069276 33.8499029,19.6198539 33.8645076,19.9376854 L33.8645076,19.9376854 Z" id="Path"></path>
                        <path d="M33.8645076,14.5326854 L33.8645076,16.4676854 C33.8537319,17.006807 33.67936,17.5299226 33.3645076,17.9676854 C33.1556015,18.2572945 32.8923856,18.5035288 32.5895076,18.6926854 L19.7645076,26.7726854 L19.2645076,27.0926854 L19.2295076,27.0926854 C19.0369733,27.2119404 18.832536,27.3108077 18.6195076,27.3876854 C17.6019701,27.771827 16.4630265,27.6551548 15.5445076,27.0726854 L2.19950765,18.6826854 C1.89565278,18.4945271 1.63359255,18.2460804 1.42950765,17.9526854 C1.13949552,17.5547322 0.966330328,17.0837229 0.929507646,16.5926854 L0.929507646,14.5276854 C1.15155375,14.7803885 1.40926547,14.9993592 1.69450765,15.1776854 L15.0495076,23.5676854 C16.4834187,24.4610198 18.3005965,24.4610198 19.7345076,23.5676854 L33.0795076,15.1826854 C33.3696452,15.002905 33.6337702,14.7842028 33.8645076,14.5326854 Z" id="Path"></path>
                    </g>
                    <circle id="Oval" fill="#7D84B2" fill-rule="nonzero" cx="67.835" cy="18.225" r="17.74"></circle>
                    <rect id="Rectangle" fill="#FFFFFF" fill-rule="nonzero" x="60.635" y="14.615" width="14.745" height="10.65" rx="2.54"></rect>
                    <path d="M63.825,14.615 C63.825,12.3064497 65.6964497,10.435 68.005,10.435 C70.3135503,10.435 72.185,12.3064497 72.185,14.615" id="Path" stroke="#FFFFFF" stroke-width="2"></path>
                </g>
            </g>
        </g>
    </g>
</svg>