<?xml version="1.0" encoding="UTF-8"?>
<svg width="233px" height="510px" viewBox="0 0 233 510" version="1.1" xmlns="http://www.w3.org/2000/svg" xmlns:xlink="http://www.w3.org/1999/xlink">
    <!-- Generator: sketchtool 61.1 (101010) - https://sketch.com -->
    <title>F1182E9B-919E-4F86-8AA8-E03FD1A872B3</title>
    <desc>Created with sketchtool.</desc>
    <g id="Page-1" stroke="none" stroke-width="1" fill="none" fill-rule="evenodd">
        <g id="01F" transform="translate(-443.000000, -343.000000)">
            <g id="Group-4" transform="translate(123.000000, 343.000000)">
                <g id="Group-30" transform="translate(321.000000, 0.000000)">
                    <path d="M165,506.446657 C164,509.446657 161,507.446657 161,507.446657 L159,500.446657 C144,510.446657 136,509.446657 136,509.446657 C137.270032,507.083628 139.214004,505.001776 141,503 C145.25,507.33 164,494.446657 164,494.446657 C164,494.446657 165,502.446657 165,506.446657 Z" id="Path" stroke="#7D84B2" fill="#7D84B2" fill-rule="nonzero" transform="translate(150.500000, 501.960546) scale(-1, 1) translate(-150.500000, -501.960546) "></path>
                    <path d="M130.75,507.446657 C128.75,510.446657 126.75,507.446657 126.75,507.446657 L125.75,499.446657 C105.75,513.446657 101.75,508.446657 101.75,508.446657 C102.33,506.446657 104.42,504.23 106.75,502 C106.87,508.67 129.75,493.446657 129.75,493.446657 C131.75,498.446657 130.75,507.446657 130.75,507.446657 Z" id="Path" stroke="#7D84B2" fill="#7D84B2" fill-rule="nonzero" transform="translate(116.375000, 501.380685) scale(-1, 1) translate(-116.375000, -501.380685) "></path>
                    <path d="M152,286.446657 L157.11,365.786657 L157.11,365.976657 C157.11,365.976657 161.11,366.76 162.98,367" id="Path" stroke="#7D84B2" transform="translate(157.490000, 326.723328) scale(-1, 1) translate(-157.490000, -326.723328) "></path>
                    <path d="M207.17323,16.586657 C207.05323,25.586657 199.65323,32.086657 190.28323,36.756657 L189.75323,37.016657 L189.48323,37.146657 L188.34323,37.686657 L187.14323,38.216657 L186.07323,38.676657 L185.92323,38.736657 L185.15323,39.056657 L184.10323,39.476657 L183.77323,39.606657 C183.27323,39.806657 182.77323,39.996657 182.26323,40.176657 C181.75323,40.356657 181.16323,40.576657 180.61323,40.766657 L178.95323,41.326657 C178.40323,41.516657 177.85323,41.686657 177.30323,41.856657 C176.75323,42.026657 176.21323,42.196657 175.68323,42.356657 C174.57323,42.686657 173.47323,42.996657 172.39323,43.286657 L170.81323,43.706657 C169.226564,44.1133237 167.686564,44.4833237 166.19323,44.816657 L164.73323,45.136657 L163.32323,45.436657 C161.71323,45.766657 160.20323,46.056657 158.84323,46.296657 L158.26323,46.396657 L157.05323,46.596657 L155.94323,46.776657 L155.23323,46.886657 L154.39323,47.016657 L154.31323,47.016657 L153.45323,47.136657 L153.16323,47.136657 L152.89323,47.136657 L152.53323,47.186657 L151.47323,47.316657 L151.47323,47.316657 C151.460234,47.384188 151.443543,47.450955 151.42323,47.516657 C151.42323,47.666657 151.33323,47.886657 151.26323,48.176657 C151.19323,48.466657 151.11323,48.836657 151.02323,49.266657 C151.02323,49.266657 151.02323,49.266657 151.02323,49.266657 C150.96323,49.5399903 150.90323,49.8399903 150.84323,50.166657 C150.78323,50.4933237 150.73323,50.7433237 150.69323,50.916657 C150.64323,51.226657 150.58323,51.546657 150.52323,51.916657 C150.46323,52.286657 150.37323,52.796657 150.30323,53.266657 C150.30323,53.486657 150.22323,53.716657 150.19323,53.956657 C150.11323,54.496657 150.03323,55.066657 149.95323,55.666657 L149.86323,56.396657 C149.86323,56.586657 149.86323,56.776657 149.79323,56.976657 L149.67323,57.976657 C149.67323,58.336657 149.60323,58.696657 149.56323,59.066657 C149.56323,59.066657 149.56323,59.156657 149.56323,59.206657 C149.56323,59.726657 149.46323,60.266657 149.42323,60.826657 L149.36323,61.666657 L149.30323,62.526657 L149.30323,63.106657 C148.676845,73.5899948 149.767891,84.1052392 152.53323,94.236657 C152.53323,94.236657 155.84323,101.186657 154.84323,117.186657 C154.84323,117.186657 128.53323,127.236657 121.53323,156.236657 L121.11323,155.966657 C95.7532304,139.656657 93.3332304,121.686657 95.7132304,109.566657 C97.1007584,102.606869 100.691039,96.2782979 105.95323,91.516657 C119.87323,78.866657 121.53323,67.236657 121.53323,67.236657 C123.91073,53.0903142 131.72773,40.4352444 143.31323,31.976657 C143.31323,26.976657 150.46323,16.426657 163.46323,12.426657 C172.13323,9.756657 176.79323,6.646657 178.94323,4.866657 C180.82216,3.27232393 182.964081,2.01694877 185.27323,1.156657 C195.08323,-2.333343 200.99323,2.796657 203.99323,6.976657 C206.049982,9.7593958 207.164123,13.1263418 207.17323,16.586657 Z" id="Path" fill="#7D84B2" fill-rule="nonzero" transform="translate(151.086615, 78.118328) scale(-1, 1) translate(-151.086615, -78.118328) "></path>
                    <path d="M129.055477,157.366657 L131.915477,159.446657 L129.395477,163.126657 L125.945477,168.186657 L108.365477,193.886657 C108.30531,193.975246 108.18604,194.000723 108.094929,193.944448 C108.003819,193.888174 107.973201,193.770119 108.025477,193.676657 L125.575477,162.106657 L125.575477,162.106657 L125.925477,161.466657 L125.555477,161.126657 L114.945477,151.446657 L128.945477,136.446657 L109.945477,117.446657 L133.945477,133.446657 L127.325477,142.616657 L124.325477,146.766657 L120.945477,151.446657 L124.945477,154.366657 L129.055477,157.366657 Z" id="Path" fill="#3E5460" fill-rule="nonzero" transform="translate(120.972739, 155.710483) scale(-1, 1) translate(-120.972739, -155.710483) "></path>
                    <path d="M222.72,259.376657 L211.93,259.946657 L211.67,259.946657 L208.86,260.096657 L208.54,260.096657 L206.84,260.186657 L206.47,260.186657 L203.67,260.326657 L203.23,260.326657 L201.94,260.396657 L201.47,260.396657 L198.68,260.546657 L198.12,260.546657 L196.32,260.636657 L195.7,260.636657 L193.32,260.776657 L192.65,260.776657 L178.53,261.516657 L177.82,247.246657 L177.82,246.976657 L176.52,220.246657 L176.52,219.456657 L176,208.706657 L214.72,206.846657 L220.65,206.526657 L220.65,206.526657 C220.52,220.766657 221.03,234.356657 221.75,246.156657 L222.38,255.326657 C222.43,256.016657 222.48,256.706657 222.53,257.326657 C222.58,257.946657 222.63,258.716657 222.72,259.376657 Z" id="Path" fill="#F5F8FA" fill-rule="nonzero" transform="translate(199.360000, 234.021657) scale(-1, 1) translate(-199.360000, -234.021657) "></path>
                    <line x1="181.45" y1="154.516657" x2="181.08" y2="156.176657" id="Path" stroke="#467773" transform="translate(181.265000, 155.346657) scale(-1, 1) translate(-181.265000, -155.346657) "></line>
                    <path d="M34.25,267.606657 C34.25,267.606657 34.25,269.916657 29.65,267.606657 L23.33,264.446657 L20.47,263.026657 C20.57,263.146657 21.29,264.026657 22.25,265.316657 C24.79,268.676657 28.99,274.506657 27.36,274.506657 C26.02,274.506657 21.58,271.396657 18.09,268.806657 C15.72,267.036657 13.79,265.496657 13.58,265.336657 C13.79,265.546657 15.63,267.406657 17.35,269.456657 C18.96,271.356657 20.46,273.456657 20.46,274.456657 C20.46,276.546657 17.63,274.846657 14.32,272.156657 C12.49,270.676657 10.51,268.886657 8.78,267.256657 C6.78,265.336657 5.05,263.646657 4.37,262.966657 C2.08,260.666657 4.37,265.266657 4.37,265.266657 C5.10848475,266.880996 5.47092249,268.641896 5.43,270.416657 C5.32,271.586657 4.85,272.156657 4.37,272.156657 L4.19,271.656657 C3.65,270.246657 2.01,265.996657 0,261.256657 L9.87,253.936657 C13.8086223,254.678913 17.6937845,255.681104 21.5,256.936657 C24.0755943,257.757035 26.5563026,258.849887 28.9,260.196657 C29.16,260.346657 29.41,260.506657 29.65,260.666657 C29.65,260.666657 31.12,262.126657 27.04,261.556657 C25.5992184,261.332462 24.1707207,261.035414 22.76,260.666657 L25.76,262.486657 L34.25,267.606657 Z" id="Path" stroke="#7D84B2" fill="#E2B7B7" fill-rule="nonzero" stroke-linecap="round" stroke-linejoin="round" transform="translate(17.125000, 264.663897) scale(-1, 1) translate(-17.125000, -264.663897) "></path>
                    <path d="M148.672484,84.216657 C143.332484,89.786657 134.672484,90.396657 131.142484,90.396657 C130.282484,90.396657 129.762484,90.396657 129.722484,90.396657 L127.322484,90.206657 L128.452484,118.476657 C127.452484,119.376657 125.242484,121 122.182484,121 C119.846185,120.886989 116.717297,118.765053 115.182484,117 C116.042484,101.27 113.852484,95.156657 113.392484,93.976657 C109.233897,78.3755485 108.924848,62.813799 112.182484,47 C117.482484,46.3 136.232484,43.77 151.182484,37 C153.292484,49.84 153.172484,69.846657 153.182484,70.076657 C153.412484,76.076657 151.902484,80.836657 148.672484,84.216657 Z" id="Path" fill="#E2B7B7" fill-rule="nonzero" transform="translate(131.591242, 79.000000) scale(-1, 1) translate(-131.591242, -79.000000) "></path>
                    <path d="M111.272727,47.326657 C107.939394,61.7755523 108.272727,77.482219 112.272727,94.446657 C112.272727,94.446657 115.272727,104 114.522727,117.446657 C119.689394,122.482219 124.919394,121.942219 130.212727,115.826657 L129.272727,92.426657 C129.272727,92.426657 153.272727,94.126657 153.272727,71.426657 C153.272727,71.426657 152.452727,48.556657 150.082727,36.776657 C144.876061,39.592219 137.939394,42 129.272727,44 C120.606061,46 114.606061,47.1088857 111.272727,47.326657 Z" id="Path" stroke="#7D84B2" transform="translate(131.136364, 78.817105) scale(-1, 1) translate(-131.136364, -78.817105) "></path>
                    <path d="M147.941705,116.976657 L141.511705,200.336657 C141.511705,200.456657 141.331705,200.466657 141.331705,200.266657 L132.521705,117.076657 C132.512587,117.025328 132.540752,116.974648 132.589156,116.955286 C132.637561,116.935924 132.692908,116.953199 132.721705,116.996657 C136.548372,122.332219 141.621705,122.325552 147.941705,116.976657 Z" id="Path" stroke="#7D84B2" fill="#F5F8FA" fill-rule="nonzero" transform="translate(140.230852, 158.685065) scale(-1, 1) translate(-140.230852, -158.685065) "></path>
                    <path d="M186.82,265.976657 L176,266.486657 C175.922614,264.759861 175.73557,263.039728 175.44,261.336657 L186.37,260.986657 C186.52,262.696657 186.68,264.356657 186.82,265.976657 Z" id="Path" fill="#7D84B2" fill-rule="nonzero" transform="translate(181.130000, 263.736657) scale(-1, 1) translate(-181.130000, -263.736657) "></path>
                    <line x1="146.57" y1="286.446657" x2="142.03" y2="286.446657" id="Path" stroke="#467773" transform="translate(144.300000, 286.446657) scale(-1, 1) translate(-144.300000, -286.446657) "></line>
                    <path d="M232,202.566657 C232,203.886657 232,205.216657 231.94,206.566657 L231.94,206.646657 L226.01,206.886657 L186.01,208.486657 L186.45,220.486657 L191,220.486657 L191,247.486657 L187.38,247.486657 L187.94,262.486657 L204.12,261.966657 C204.618325,263.801029 205.243155,265.598667 205.99,267.346657 L182,268.446657 L182,247.446657 L178,247.446657 L178,220.446657 L182,220.446657 L182,203.446657 L220.33,202.776657 L232,202.566657 Z" id="Path" fill="#7D84B2" fill-rule="nonzero" transform="translate(205.000000, 235.506657) scale(-1, 1) translate(-205.000000, -235.506657) "></path>
                    <line x1="203.98" y1="266.456657" x2="186.26" y2="267.306657" id="Path" stroke="#467773" transform="translate(195.120000, 266.881657) scale(-1, 1) translate(-195.120000, -266.881657) "></line>
                    <path d="M191.844622,264.976657 C191.084622,265.746657 190.314622,264.516657 190.314622,264.516657 C190.314622,264.516657 190.174622,263.236657 189.914622,261.516657 L191.914622,261.456657 C192.064622,263.256657 192.094622,264.716657 191.844622,264.976657 Z" id="Path" fill="#7D84B2" fill-rule="nonzero" transform="translate(190.972311, 263.343388) scale(-1, 1) translate(-190.972311, -263.343388) "></path>
                    <path d="M202.6,264.586657 C202.6,266.586657 200.14,263.506657 200.14,263.506657 C200.14,263.506657 200,262.796657 199.77,261.746657 L202.18,261.666657 C202.391123,262.628427 202.531498,263.604373 202.6,264.586657 L202.6,264.586657 Z" id="Path" fill="#7D84B2" fill-rule="nonzero" transform="translate(201.185000, 263.464268) scale(-1, 1) translate(-201.185000, -263.464268) "></path>
                    <line x1="190.09" y1="261.306657" x2="186.82" y2="261.416657" id="Path" stroke="#467773" transform="translate(188.455000, 261.361657) scale(-1, 1) translate(-188.455000, -261.361657) "></line>
                    <path d="M195.260139,265.146657 C195.260139,265.146657 195.100139,263.606657 194.780139,261.656657 L196.520139,261.606657 C196.730139,263.026657 196.900139,264.246657 196.940139,264.836657 C197.100139,266.836657 195.260139,265.146657 195.260139,265.146657 Z" id="Path" fill="#7D84B2" fill-rule="nonzero" transform="translate(195.865069, 263.710180) scale(-1, 1) translate(-195.865069, -263.710180) "></path>
                    <line x1="200.4" y1="261.636657" x2="197.08" y2="261.746657" id="Path" stroke="#467773" transform="translate(198.740000, 261.691657) scale(-1, 1) translate(-198.740000, -261.691657) "></line>
                    <line x1="205.85" y1="261.826657" x2="202.81" y2="261.926657" id="Path" stroke="#467773" transform="translate(204.330000, 261.876657) scale(-1, 1) translate(-204.330000, -261.876657) "></line>
                    <line x1="195.34" y1="261.476657" x2="192.09" y2="261.586657" id="Path" stroke="#467773" transform="translate(193.715000, 261.531657) scale(-1, 1) translate(-193.715000, -261.531657) "></line>
                    <polygon id="Path" fill="#7D84B2" fill-rule="nonzero" transform="translate(208.030000, 226.946657) scale(-1, 1) translate(-208.030000, -226.946657) " points="207.03 212.446657 206.03 241.446657 210.03 241.446657 210.03 212.446657"></polygon>
                    <polygon id="Path" fill="#7D84B2" fill-rule="nonzero" transform="translate(200.530000, 226.946657) scale(-1, 1) translate(-200.530000, -226.946657) " points="200.03 212.446657 199.03 241.446657 202.03 241.446657 202.03 212.446657"></polygon>
                    <polygon id="Path" fill="#7D84B2" fill-rule="nonzero" transform="translate(192.530000, 226.946657) scale(-1, 1) translate(-192.530000, -226.946657) " points="191.03 212.446657 191.03 241.446657 194.03 241.446657 193.03 212.446657"></polygon>
                    <polygon id="Path" fill="#7D84B2" fill-rule="nonzero" transform="translate(183.690000, 250.946657) scale(-1, 1) translate(-183.690000, -250.946657) " points="191.03 255.446657 176.35 255.446657 176.35 246.446657 190.39 246.446657"></polygon>
                    <circle id="Oval" fill="#7D84B2" fill-rule="nonzero" transform="translate(204.030000, 251.446657) scale(-1, 1) translate(-204.030000, -251.446657) " cx="204.03" cy="251.446657" r="5"></circle>
                    <path d="M146.53,224.326657 L143.84,282.396657 L143.7,285.496657 L143.7,286.496657 L139.16,286.496657 L139.3,285.316657 L139.66,282.236657 L146.37,224.366657 C146.381498,224.335761 146.407485,224.312518 146.439466,224.304522 C146.471448,224.296527 146.505315,224.304807 146.53,224.326657 L146.53,224.326657 Z" id="Path" fill="#F5F8FA" fill-rule="nonzero" transform="translate(142.845000, 255.399096) scale(-1, 1) translate(-142.845000, -255.399096) "></path>
                    <path d="M167.602243,196.386657 L153.942243,175.386657 L153.762243,175.106657 L151.272243,171.326657 L151.272243,171.266657 L151.272243,171.266657 L144.272243,160.456657 L150.272243,156.596657 L152.272243,155.316657 L158.272243,151.456657 L152.272243,144.956657 L150.272243,142.786657 L146.272243,138.456657 L163.462243,118.716657 L152.272243,138.446657 L163.272243,151.446657 L149.272243,161.446657 L167.972243,196.176657 C168.030232,196.27883 167.994415,196.408667 167.892243,196.466657 C167.79007,196.524647 167.660232,196.48883 167.602243,196.386657 Z" id="Path" fill="#3E5460" fill-rule="nonzero" transform="translate(156.136121, 157.605536) scale(-1, 1) translate(-156.136121, -157.605536) "></path>
                    <path d="M126.24,367.266657 L121.56,493.446657 C121.56,493.446657 98.44,508.566657 98.32,501.896657 C102.720527,497.964678 107.489165,494.465221 112.56,491.446657 L104.74,369.206657 C113.01,369.326657 120.91,368.876657 126.24,367.266657 Z" id="Path" stroke="#7D84B2" fill="#E2B7B7" fill-rule="nonzero" stroke-linecap="round" stroke-linejoin="round" transform="translate(112.280000, 435.431204) scale(-1, 1) translate(-112.280000, -435.431204) "></path>
                    <path d="M91.22,367.406657 C92.9488706,366.942812 94.5742014,366.155595 96.01,365.086657 L98.34,290.206657" id="Path" stroke="#7D84B2" transform="translate(94.780000, 328.806657) scale(-1, 1) translate(-94.780000, -328.806657) "></path>
                    <path d="M132.15,369.336657 C128.06,369.276657 123.87,369.066657 119.85,368.796657" id="Path" stroke="#7D84B2" transform="translate(126.000000, 369.066657) scale(-1, 1) translate(-126.000000, -369.066657) "></path>
                    <path d="M162.64,290.266657 L160.35,363.716657 C158.851811,364.83752 157.155418,365.66536 155.35,366.156657 C149.73,367.856657 141.35,368.336657 132.65,368.206657 C128.34,368.146657 123.92,367.916657 119.65,367.636657 C112.27,367.126657 105.41,366.386657 100.48,365.786657 L95.37,286.446657 L116.01,286.446657 L116.01,292.446657 L162.64,290.266657 Z" id="Path" fill="#7D84B2" fill-rule="nonzero" transform="translate(129.005000, 327.336704) scale(-1, 1) translate(-129.005000, -327.336704) "></path>
                    <path d="M160.4,368.666657 L155.55,494.446657 C155.55,494.446657 136.4,507.206657 132.15,502.876657 C136.33282,498.169682 141.626925,494.584129 147.55,492.446657 L137.92,366.346657 C142.19,366.976657 150.84,367.976657 160.4,368.666657 Z" id="Path" stroke="#7D84B2" fill="#E2B7B7" fill-rule="nonzero" stroke-linecap="round" stroke-linejoin="round" transform="translate(146.275000, 435.059957) scale(-1, 1) translate(-146.275000, -435.059957) "></path>
                    <path d="M206.97298,271.626657 C206.870159,272.54159 206.156011,273.268123 205.24298,273.386657 C201.71298,273.796657 192.97298,274.256657 190.38298,269.306657 C190.04298,268.656657 189.72298,267.986657 189.43298,267.306657 C188.686135,265.558667 188.061305,263.761029 187.56298,261.926657 C186.964018,259.760341 186.516274,257.555033 186.22298,255.326657 C186.22298,255.326657 186.52298,252.536657 188.05298,254.326657 C188.505765,254.952268 188.859885,255.643644 189.10298,256.376657 C189.718642,258.142509 190.219683,259.946259 190.60298,261.776657 C190.83298,262.776657 190.97298,263.536657 190.97298,263.536657 C190.97298,263.536657 193.43298,266.606657 193.43298,264.616657 C193.364479,263.634373 193.224103,262.658427 193.01298,261.696657 C192.61298,259.696657 192.01298,257.356657 191.67298,255.846657 L191.67298,255.846657 C191.44298,254.936657 191.28298,254.336657 191.28298,254.336657 C191.28298,254.336657 192.12298,252.096657 193.79298,253.766657 C193.88365,253.845957 193.967295,253.932948 194.04298,254.026657 C195.12298,255.286657 195.88298,258.846657 196.33298,261.596657 C196.65298,263.546657 196.81298,265.086657 196.81298,265.086657 C196.81298,265.086657 198.65298,266.776657 198.49298,264.776657 C198.49298,264.186657 198.28298,262.966657 198.07298,261.546657 C197.57298,258.196657 196.81298,253.726657 196.81298,253.726657 C196.81298,253.726657 196.81298,251.116657 198.65298,252.186657 C199.87298,252.896657 200.82298,258.046657 201.32298,261.436657 C201.58298,263.186657 201.72298,264.436657 201.72298,264.436657 C201.72298,264.436657 202.49298,265.666657 203.25298,264.896657 C203.50298,264.646657 203.47298,263.186657 203.32298,261.346657 C203.17298,259.506657 202.87298,257.176657 202.62298,255.346657 C202.53298,254.676657 202.45298,254.076657 202.38298,253.586657 C202.26298,252.786657 202.18298,252.276657 202.18298,252.276657 C202.235695,252.120837 202.302645,251.970201 202.38298,251.826657 C202.64298,251.376657 203.15298,250.896657 203.87298,252.126657 C204.399707,253.158664 204.831485,254.236436 205.16298,255.346657 C205.777191,257.263838 206.25505,259.222056 206.59298,261.206657 C206.888551,262.909728 207.075594,264.629861 207.15298,266.356657 C207.237474,268.115288 207.177272,269.877889 206.97298,271.626657 L206.97298,271.626657 Z" id="Path" stroke="#7D84B2" fill="#E2B7B7" fill-rule="nonzero" stroke-linecap="round" stroke-linejoin="round" transform="translate(196.706490, 262.483945) scale(-1, 1) translate(-196.706490, -262.483945) "></path>
                    <path d="M130.44,51.976657 C130.44,51.976657 124.79,50.846657 123.66,54.246657 C122.53,57.646657 125.92,67.816657 125.92,67.816657 C125.92,67.816657 127.05,70.076657 121.39,70.076657" id="Path" stroke="#7D84B2" transform="translate(125.915000, 60.936576) scale(-1, 1) translate(-125.915000, -60.936576) "></path>
                    <path d="M120.942859,61.706657 C119.472859,60.546657 120.852859,55.536657 121.222859,56.346657 C122.992859,60.136657 120.942859,61.706657 120.942859,61.706657 Z" id="Path" stroke="#7D84B2" fill="#7D84B2" transform="translate(121.111430, 58.982593) scale(-1, 1) translate(-121.111430, -58.982593) "></path>
                    <path d="M134.212859,61.706657 C132.742859,60.546657 134.122859,55.536657 134.492859,56.346657 C136.262859,60.136657 134.212859,61.706657 134.212859,61.706657 Z" id="Path" stroke="#7D84B2" fill="#7D84B2" transform="translate(134.381430, 58.982593) scale(-1, 1) translate(-134.381430, -58.982593) "></path>
                    <path d="M122.96,78.976657 C124.87,78.746657 126.72,78.636657 128.53,78.306657 C130.34116,78.081969 132.063513,77.3930274 133.53,76.306657 C133.059776,77.1720765 132.333187,77.8707192 131.45,78.306657 C130.577456,78.7659278 129.634585,79.0768387 128.66,79.226657 C127.702837,79.392503 126.729984,79.4495323 125.76,79.396657 C124.812471,79.3778599 123.871344,79.2366908 122.96,78.976657 L122.96,78.976657 Z" id="Path" stroke="#7D84B2" fill="#7D84B2" fill-rule="nonzero" transform="translate(128.245000, 77.861204) scale(-1, 1) rotate(7.000000) translate(-128.245000, -77.861204) "></path>
                    <path d="M21.01,202.776657 L22.26,202.776657 L32.66,202.586657 C32.66,203.906657 32.66,205.236657 32.6,206.586657 C32.47,220.826657 33.02,234.416657 33.74,246.216657 L34.37,255.386657 C34.42,256.076657 34.47,256.766657 34.52,257.386657 C34.57,258.006657 34.62,258.726657 34.68,259.386657 C34.73,259.906657 34.77,260.386657 34.82,260.926657 C34.97,262.666657 35.13,264.326657 35.27,265.926657 C36.49,278.576657 37.67,286.426657 37.67,286.426657 L64.13,286.426657 L64.27,285.246657 L64.63,282.166657 L71.34,224.296657 C71.34,224.241429 71.3847716,224.196657 71.44,224.196657 C71.4952284,224.196657 71.54,224.241429 71.54,224.296657 L68.85,282.366657 L68.71,285.466657 L68.71,286.466657 L68.71,292.466657 L115.37,290.286657 L118.14,290.156657 L119.54,290.086657 L132.71,289.466657 L129.71,186.466657 L171.89,264.666657 L176.54,261.226657 L189.18,251.866657 L189.7,251.476657 L138.82,163.766657 C137.413333,161.57999 135.906667,159.453324 134.3,157.386657 L122.71,142.446657 C110.952433,129.44772 95.6291042,120.196686 78.65,115.846657 L71.79,201.336657 C71.79,201.391885 71.7452284,201.436657 71.69,201.436657 C71.6347716,201.436657 71.59,201.391885 71.59,201.336657 L62.71,117.246657 C62.71,117.246657 36.71,127.446657 29.71,156.446657 L21.01,202.776657 Z M57.71,253.446657 L41.71,253.446657 L41.71,248.446657 L57.71,247.446657 L57.71,253.446657 Z M116.71,250.446657 L87.71,251.446657 L87.71,245.446657 L116.71,245.446657 L116.71,250.446657 Z" id="Shape" stroke="#7D84B2" fill="#FFFFFF" transform="translate(105.355000, 204.156657) scale(-1, 1) translate(-105.355000, -204.156657) "></path>
                </g>
            </g>
        </g>
    </g>
</svg>